<?xml version="1.0" encoding="UTF-8" standalone="no"?>
<!DOCTYPE svg PUBLIC "-//W3C//DTD SVG 1.1//EN"
 "http://www.w3.org/Graphics/SVG/1.1/DTD/svg11.dtd">
<!-- Generated by graphviz version 2.40.1 (20161225.0304)
 -->
<!-- Title: dependencies Pages: 1 -->
<svg width="808pt" height="211pt"
 viewBox="0.00 0.00 808.00 211.00" xmlns="http://www.w3.org/2000/svg" xmlns:xlink="http://www.w3.org/1999/xlink">
<g id="graph0" class="graph" transform="scale(1 1) rotate(0) translate(4 207)">
<title>dependencies</title>
<polygon fill="#ffffff" stroke="transparent" points="-4,4 -4,-207 804,-207 804,4 -4,4"/>
<text text-anchor="start" x="379.0091" y="-42.4" font-family="sans-serif" font-weight="bold" font-size="14.00" fill="#000000">Legend</text>
<polygon fill="#ffffb3" stroke="transparent" points="166,-10 166,-30 186,-30 186,-10 166,-10"/>
<text text-anchor="start" x="189.629" y="-15.4" font-family="sans-serif" font-size="14.00" fill="#000000"> &#160;Declarations</text>
<polygon fill="#8dd3c7" stroke="transparent" points="279,-10 279,-30 299,-30 299,-10 279,-10"/>
<text text-anchor="start" x="302.7251" y="-15.4" font-family="sans-serif" font-size="14.00" fill="#000000"> &#160;Module</text>
<polygon fill="#80b1d3" stroke="transparent" points="365,-10 365,-30 385,-30 385,-10 365,-10"/>
<text text-anchor="start" x="388.7812" y="-15.4" font-family="sans-serif" font-size="14.00" fill="#000000"> &#160;Bootstrap</text>
<polygon fill="#fdb462" stroke="transparent" points="462,-10 462,-30 482,-30 482,-10 462,-10"/>
<text text-anchor="start" x="485.6732" y="-15.4" font-family="sans-serif" font-size="14.00" fill="#000000"> &#160;Providers</text>
<polygon fill="#fb8072" stroke="transparent" points="558,-10 558,-30 578,-30 578,-10 558,-10"/>
<text text-anchor="start" x="581.7258" y="-15.4" font-family="sans-serif" font-size="14.00" fill="#000000"> &#160;Exports</text>
<g id="clust1" class="cluster">
<title>cluster_CreateNewChallengeModule</title>
<polygon fill="none" stroke="#000000" stroke-dasharray="1,5" points="8,-70 8,-195 792,-195 792,-70 8,-70"/>
</g>
<g id="clust2" class="cluster">
<title>cluster_CreateNewChallengeModule_declarations</title>
<polygon fill="none" stroke="#000000" points="264,-78 264,-130 784,-130 784,-78 264,-78"/>
</g>
<g id="clust6" class="cluster">
<title>cluster_CreateNewChallengeModule_imports</title>
<polygon fill="none" stroke="#000000" points="16,-78 16,-130 256,-130 256,-78 16,-78"/>
</g>
<!-- CreateFormComponent -->
<g id="node1" class="node">
<title>CreateFormComponent</title>
<polygon fill="#ffffb3" stroke="#000000" points="776.1979,-122 627.8021,-122 627.8021,-86 776.1979,-86 776.1979,-122"/>
<text text-anchor="middle" x="702" y="-99.8" font-family="Times,serif" font-size="14.00" fill="#000000">CreateFormComponent</text>
</g>
<!-- CreateNewChallengeModule -->
<g id="node4" class="node">
<title>CreateNewChallengeModule</title>
<polygon fill="#8dd3c7" stroke="#000000" points="533.771,-187 530.771,-191 509.771,-191 506.771,-187 354.229,-187 354.229,-151 533.771,-151 533.771,-187"/>
<text text-anchor="middle" x="444" y="-164.8" font-family="Times,serif" font-size="14.00" fill="#000000">CreateNewChallengeModule</text>
</g>
<!-- CreateFormComponent&#45;&gt;CreateNewChallengeModule -->
<g id="edge1" class="edge">
<title>CreateFormComponent&#45;&gt;CreateNewChallengeModule</title>
<path fill="none" stroke="#000000" d="M702,-122.1061C702,-141.3391 702,-169 702,-169 702,-169 543.8737,-169 543.8737,-169"/>
<polygon fill="#000000" stroke="#000000" points="543.8737,-165.5001 533.8737,-169 543.8737,-172.5001 543.8737,-165.5001"/>
</g>
<!-- ModifyFormComponent -->
<g id="node2" class="node">
<title>ModifyFormComponent</title>
<polygon fill="#ffffb3" stroke="#000000" points="609.6624,-122 456.3376,-122 456.3376,-86 609.6624,-86 609.6624,-122"/>
<text text-anchor="middle" x="533" y="-99.8" font-family="Times,serif" font-size="14.00" fill="#000000">ModifyFormComponent</text>
</g>
<!-- ModifyFormComponent&#45;&gt;CreateNewChallengeModule -->
<g id="edge2" class="edge">
<title>ModifyFormComponent&#45;&gt;CreateNewChallengeModule</title>
<path fill="none" stroke="#000000" d="M494.9022,-122.1061C494.9022,-122.1061 494.9022,-140.991 494.9022,-140.991"/>
<polygon fill="#000000" stroke="#000000" points="491.4023,-140.9909 494.9022,-150.991 498.4023,-140.991 491.4023,-140.9909"/>
</g>
<!-- TestcasesTableComponent -->
<g id="node3" class="node">
<title>TestcasesTableComponent</title>
<polygon fill="#ffffb3" stroke="#000000" points="438.3403,-122 271.6597,-122 271.6597,-86 438.3403,-86 438.3403,-122"/>
<text text-anchor="middle" x="355" y="-99.8" font-family="Times,serif" font-size="14.00" fill="#000000">TestcasesTableComponent</text>
</g>
<!-- TestcasesTableComponent&#45;&gt;CreateNewChallengeModule -->
<g id="edge3" class="edge">
<title>TestcasesTableComponent&#45;&gt;CreateNewChallengeModule</title>
<path fill="none" stroke="#000000" d="M396.3924,-122.1061C396.3924,-122.1061 396.3924,-140.991 396.3924,-140.991"/>
<polygon fill="#000000" stroke="#000000" points="392.8924,-140.9909 396.3924,-150.991 399.8924,-140.991 392.8924,-140.9909"/>
</g>
<!-- CreateNewChallengeRoutingModule -->
<g id="node5" class="node">
<title>CreateNewChallengeRoutingModule</title>
<polygon fill="#8dd3c7" stroke="#000000" points="248.3889,-122 245.3889,-126 224.3889,-126 221.3889,-122 23.6111,-122 23.6111,-86 248.3889,-86 248.3889,-122"/>
<text text-anchor="middle" x="136" y="-99.8" font-family="Times,serif" font-size="14.00" fill="#000000">CreateNewChallengeRoutingModule</text>
</g>
<!-- CreateNewChallengeRoutingModule&#45;&gt;CreateNewChallengeModule -->
<g id="edge4" class="edge">
<title>CreateNewChallengeRoutingModule&#45;&gt;CreateNewChallengeModule</title>
<path fill="none" stroke="#000000" d="M136,-122.1061C136,-141.3391 136,-169 136,-169 136,-169 344.0857,-169 344.0857,-169"/>
<polygon fill="#000000" stroke="#000000" points="344.0857,-172.5001 354.0857,-169 344.0856,-165.5001 344.0857,-172.5001"/>
</g>
</g>
</svg>
