<?xml version="1.0" encoding="UTF-8" standalone="no"?>
<!DOCTYPE svg PUBLIC "-//W3C//DTD SVG 1.1//EN"
 "http://www.w3.org/Graphics/SVG/1.1/DTD/svg11.dtd">
<!-- Generated by graphviz version 2.40.1 (20161225.0304)
 -->
<!-- Title: dependencies Pages: 1 -->
<svg width="504pt" height="211pt"
 viewBox="0.00 0.00 504.00 211.00" xmlns="http://www.w3.org/2000/svg" xmlns:xlink="http://www.w3.org/1999/xlink">
<g id="graph0" class="graph" transform="scale(1 1) rotate(0) translate(4 207)">
<title>dependencies</title>
<polygon fill="#ffffff" stroke="transparent" points="-4,4 -4,-207 500,-207 500,4 -4,4"/>
<text text-anchor="start" x="227.0091" y="-42.4" font-family="sans-serif" font-weight="bold" font-size="14.00" fill="#000000">Legend</text>
<polygon fill="#ffffb3" stroke="transparent" points="14,-10 14,-30 34,-30 34,-10 14,-10"/>
<text text-anchor="start" x="37.629" y="-15.4" font-family="sans-serif" font-size="14.00" fill="#000000"> &#160;Declarations</text>
<polygon fill="#8dd3c7" stroke="transparent" points="127,-10 127,-30 147,-30 147,-10 127,-10"/>
<text text-anchor="start" x="150.7251" y="-15.4" font-family="sans-serif" font-size="14.00" fill="#000000"> &#160;Module</text>
<polygon fill="#80b1d3" stroke="transparent" points="213,-10 213,-30 233,-30 233,-10 213,-10"/>
<text text-anchor="start" x="236.7812" y="-15.4" font-family="sans-serif" font-size="14.00" fill="#000000"> &#160;Bootstrap</text>
<polygon fill="#fdb462" stroke="transparent" points="310,-10 310,-30 330,-30 330,-10 310,-10"/>
<text text-anchor="start" x="333.6732" y="-15.4" font-family="sans-serif" font-size="14.00" fill="#000000"> &#160;Providers</text>
<polygon fill="#fb8072" stroke="transparent" points="406,-10 406,-30 426,-30 426,-10 406,-10"/>
<text text-anchor="start" x="429.7258" y="-15.4" font-family="sans-serif" font-size="14.00" fill="#000000"> &#160;Exports</text>
<g id="clust1" class="cluster">
<title>cluster_ExploreModule</title>
<polygon fill="none" stroke="#000000" stroke-dasharray="1,5" points="14.5,-70 14.5,-195 481.5,-195 481.5,-70 14.5,-70"/>
</g>
<g id="clust2" class="cluster">
<title>cluster_ExploreModule_declarations</title>
<polygon fill="none" stroke="#000000" points="311.5,-78 311.5,-130 473.5,-130 473.5,-78 311.5,-78"/>
</g>
<g id="clust4" class="cluster">
<title>cluster_ExploreModule_imports</title>
<polygon fill="none" stroke="#000000" points="22.5,-78 22.5,-130 303.5,-130 303.5,-78 22.5,-78"/>
</g>
<!-- SearchPageComponent -->
<g id="node1" class="node">
<title>SearchPageComponent</title>
<polygon fill="#ffffb3" stroke="#000000" points="465.6317,-122 319.3683,-122 319.3683,-86 465.6317,-86 465.6317,-122"/>
<text text-anchor="middle" x="392.5" y="-99.8" font-family="Times,serif" font-size="14.00" fill="#000000">SearchPageComponent</text>
</g>
<!-- ExploreModule -->
<g id="node2" class="node">
<title>ExploreModule</title>
<polygon fill="#8dd3c7" stroke="#000000" points="273.3683,-187 270.3683,-191 249.3683,-191 246.3683,-187 169.6317,-187 169.6317,-151 273.3683,-151 273.3683,-187"/>
<text text-anchor="middle" x="221.5" y="-164.8" font-family="Times,serif" font-size="14.00" fill="#000000">ExploreModule</text>
</g>
<!-- SearchPageComponent&#45;&gt;ExploreModule -->
<g id="edge1" class="edge">
<title>SearchPageComponent&#45;&gt;ExploreModule</title>
<path fill="none" stroke="#000000" d="M392.5,-122.1061C392.5,-141.3391 392.5,-169 392.5,-169 392.5,-169 283.7348,-169 283.7348,-169"/>
<polygon fill="#000000" stroke="#000000" points="283.7348,-165.5001 273.7348,-169 283.7348,-172.5001 283.7348,-165.5001"/>
</g>
<!-- ExploreRoutingModule -->
<g id="node3" class="node">
<title>ExploreRoutingModule</title>
<polygon fill="#8dd3c7" stroke="#000000" points="295.986,-122 292.986,-126 271.986,-126 268.986,-122 147.014,-122 147.014,-86 295.986,-86 295.986,-122"/>
<text text-anchor="middle" x="221.5" y="-99.8" font-family="Times,serif" font-size="14.00" fill="#000000">ExploreRoutingModule</text>
</g>
<!-- ExploreRoutingModule&#45;&gt;ExploreModule -->
<g id="edge2" class="edge">
<title>ExploreRoutingModule&#45;&gt;ExploreModule</title>
<path fill="none" stroke="#000000" d="M221.5,-122.1061C221.5,-122.1061 221.5,-140.991 221.5,-140.991"/>
<polygon fill="#000000" stroke="#000000" points="218.0001,-140.9909 221.5,-150.991 225.0001,-140.991 218.0001,-140.9909"/>
</g>
<!-- SharedModule -->
<g id="node4" class="node">
<title>SharedModule</title>
<polygon fill="#8dd3c7" stroke="#000000" points="128.9231,-122 125.9231,-126 104.9231,-126 101.9231,-122 30.0769,-122 30.0769,-86 128.9231,-86 128.9231,-122"/>
<text text-anchor="middle" x="79.5" y="-99.8" font-family="Times,serif" font-size="14.00" fill="#000000">SharedModule</text>
</g>
<!-- SharedModule&#45;&gt;ExploreModule -->
<g id="edge3" class="edge">
<title>SharedModule&#45;&gt;ExploreModule</title>
<path fill="none" stroke="#000000" d="M79.5,-122.1061C79.5,-141.3391 79.5,-169 79.5,-169 79.5,-169 159.4308,-169 159.4308,-169"/>
<polygon fill="#000000" stroke="#000000" points="159.4308,-172.5001 169.4308,-169 159.4307,-165.5001 159.4308,-172.5001"/>
</g>
</g>
</svg>
