<?xml version="1.0" encoding="UTF-8" standalone="no"?>
<!DOCTYPE svg PUBLIC "-//W3C//DTD SVG 1.1//EN"
 "http://www.w3.org/Graphics/SVG/1.1/DTD/svg11.dtd">
<!-- Generated by graphviz version 2.40.1 (20161225.0304)
 -->
<!-- Title: dependencies Pages: 1 -->
<svg width="555pt" height="211pt"
 viewBox="0.00 0.00 555.00 211.00" xmlns="http://www.w3.org/2000/svg" xmlns:xlink="http://www.w3.org/1999/xlink">
<g id="graph0" class="graph" transform="scale(1 1) rotate(0) translate(4 207)">
<title>dependencies</title>
<polygon fill="#ffffff" stroke="transparent" points="-4,4 -4,-207 551,-207 551,4 -4,4"/>
<text text-anchor="start" x="252.5091" y="-42.4" font-family="sans-serif" font-weight="bold" font-size="14.00" fill="#000000">Legend</text>
<polygon fill="#ffffb3" stroke="transparent" points="39.5,-10 39.5,-30 59.5,-30 59.5,-10 39.5,-10"/>
<text text-anchor="start" x="63.129" y="-15.4" font-family="sans-serif" font-size="14.00" fill="#000000"> &#160;Declarations</text>
<polygon fill="#8dd3c7" stroke="transparent" points="152.5,-10 152.5,-30 172.5,-30 172.5,-10 152.5,-10"/>
<text text-anchor="start" x="176.2251" y="-15.4" font-family="sans-serif" font-size="14.00" fill="#000000"> &#160;Module</text>
<polygon fill="#80b1d3" stroke="transparent" points="238.5,-10 238.5,-30 258.5,-30 258.5,-10 238.5,-10"/>
<text text-anchor="start" x="262.2812" y="-15.4" font-family="sans-serif" font-size="14.00" fill="#000000"> &#160;Bootstrap</text>
<polygon fill="#fdb462" stroke="transparent" points="335.5,-10 335.5,-30 355.5,-30 355.5,-10 335.5,-10"/>
<text text-anchor="start" x="359.1732" y="-15.4" font-family="sans-serif" font-size="14.00" fill="#000000"> &#160;Providers</text>
<polygon fill="#fb8072" stroke="transparent" points="431.5,-10 431.5,-30 451.5,-30 451.5,-10 431.5,-10"/>
<text text-anchor="start" x="455.2258" y="-15.4" font-family="sans-serif" font-size="14.00" fill="#000000"> &#160;Exports</text>
<g id="clust1" class="cluster">
<title>cluster_WorkspaceModule</title>
<polygon fill="none" stroke="#000000" stroke-dasharray="1,5" points="8,-70 8,-195 539,-195 539,-70 8,-70"/>
</g>
<g id="clust2" class="cluster">
<title>cluster_WorkspaceModule_declarations</title>
<polygon fill="none" stroke="#000000" points="208,-78 208,-130 531,-130 531,-78 208,-78"/>
</g>
<g id="clust5" class="cluster">
<title>cluster_WorkspaceModule_imports</title>
<polygon fill="none" stroke="#000000" points="16,-78 16,-130 200,-130 200,-78 16,-78"/>
</g>
<!-- CodingComponent -->
<g id="node1" class="node">
<title>CodingComponent</title>
<polygon fill="#ffffb3" stroke="#000000" points="523.0604,-122 400.9396,-122 400.9396,-86 523.0604,-86 523.0604,-122"/>
<text text-anchor="middle" x="462" y="-99.8" font-family="Times,serif" font-size="14.00" fill="#000000">CodingComponent</text>
</g>
<!-- WorkspaceModule -->
<g id="node3" class="node">
<title>WorkspaceModule</title>
<polygon fill="#8dd3c7" stroke="#000000" points="360.0144,-187 357.0144,-191 336.0144,-191 333.0144,-187 237.9856,-187 237.9856,-151 360.0144,-151 360.0144,-187"/>
<text text-anchor="middle" x="299" y="-164.8" font-family="Times,serif" font-size="14.00" fill="#000000">WorkspaceModule</text>
</g>
<!-- CodingComponent&#45;&gt;WorkspaceModule -->
<g id="edge1" class="edge">
<title>CodingComponent&#45;&gt;WorkspaceModule</title>
<path fill="none" stroke="#000000" d="M462,-122.1061C462,-141.3391 462,-169 462,-169 462,-169 370.1589,-169 370.1589,-169"/>
<polygon fill="#000000" stroke="#000000" points="370.159,-165.5001 360.1589,-169 370.1589,-172.5001 370.159,-165.5001"/>
</g>
<!-- SolutionDialogComponent -->
<g id="node2" class="node">
<title>SolutionDialogComponent</title>
<polygon fill="#ffffb3" stroke="#000000" points="382.3892,-122 215.6108,-122 215.6108,-86 382.3892,-86 382.3892,-122"/>
<text text-anchor="middle" x="299" y="-99.8" font-family="Times,serif" font-size="14.00" fill="#000000">SolutionDialogComponent</text>
</g>
<!-- SolutionDialogComponent&#45;&gt;WorkspaceModule -->
<g id="edge2" class="edge">
<title>SolutionDialogComponent&#45;&gt;WorkspaceModule</title>
<path fill="none" stroke="#000000" d="M299,-122.1061C299,-122.1061 299,-140.991 299,-140.991"/>
<polygon fill="#000000" stroke="#000000" points="295.5001,-140.9909 299,-150.991 302.5001,-140.991 295.5001,-140.9909"/>
</g>
<!-- WorkspaceRoutingModule -->
<g id="node4" class="node">
<title>WorkspaceRoutingModule</title>
<polygon fill="#8dd3c7" stroke="#000000" points="191.6316,-122 188.6316,-126 167.6316,-126 164.6316,-122 24.3684,-122 24.3684,-86 191.6316,-86 191.6316,-122"/>
<text text-anchor="middle" x="108" y="-99.8" font-family="Times,serif" font-size="14.00" fill="#000000">WorkspaceRoutingModule</text>
</g>
<!-- WorkspaceRoutingModule&#45;&gt;WorkspaceModule -->
<g id="edge3" class="edge">
<title>WorkspaceRoutingModule&#45;&gt;WorkspaceModule</title>
<path fill="none" stroke="#000000" d="M108,-122.1061C108,-141.3391 108,-169 108,-169 108,-169 227.7783,-169 227.7783,-169"/>
<polygon fill="#000000" stroke="#000000" points="227.7783,-172.5001 237.7783,-169 227.7783,-165.5001 227.7783,-172.5001"/>
</g>
</g>
</svg>
