<svg id="Layer_1" data-name="Layer 1" xmlns="http://www.w3.org/2000/svg" xmlns:xlink="http://www.w3.org/1999/xlink" viewBox="0 0 800 200"><defs><style>.cls-1{opacity:0.5;}.cls-2{fill:url(#linear-gradient);}.cls-3{fill:#f5f5f5;}.cls-4{fill:#38d367;}.cls-5{fill:#333;}.cls-6{opacity:0.1;isolation:isolate;}.cls-7{fill:#be7c5e;}.cls-8{fill:url(#linear-gradient-2);}.cls-9{fill:#f55f44;}.cls-10{fill:#fda57d;}.cls-11{fill:url(#linear-gradient-3);}.cls-12{fill:url(#linear-gradient-4);}.cls-13{fill:#72351c;}.cls-14{fill:url(#linear-gradient-5);}.cls-15{fill:#fdb797;}.cls-16{fill:url(#linear-gradient-6);}.cls-17{fill:#fdd835;}.cls-18{fill:url(#linear-gradient-7);}.cls-19{fill:url(#linear-gradient-8);}.cls-20{fill:url(#linear-gradient-9);}.cls-21{fill:#00bf10;}</style><linearGradient id="linear-gradient" x1="46.05" y1="100.44" x2="46.05" y2="171.89" gradientTransform="matrix(1, 0, 0, -1, 0, 202)" gradientUnits="userSpaceOnUse"><stop offset="0" stop-color="gray" stop-opacity="0.25"/><stop offset="0.54" stop-color="gray" stop-opacity="0.12"/><stop offset="1" stop-color="gray" stop-opacity="0.1"/></linearGradient><linearGradient id="linear-gradient-2" x1="401.14" y1="100.44" x2="401.14" y2="171.89" xlink:href="#linear-gradient"/><linearGradient id="linear-gradient-3" x1="134.82" y1="100.44" x2="134.82" y2="171.89" xlink:href="#linear-gradient"/><linearGradient id="linear-gradient-4" x1="223.6" y1="100.44" x2="223.6" y2="171.89" xlink:href="#linear-gradient"/><linearGradient id="linear-gradient-5" x1="312.37" y1="100.44" x2="312.37" y2="171.89" xlink:href="#linear-gradient"/><linearGradient id="linear-gradient-6" x1="489.92" y1="100.44" x2="489.92" y2="171.89" xlink:href="#linear-gradient"/><linearGradient id="linear-gradient-7" x1="578.69" y1="100.44" x2="578.69" y2="171.89" xlink:href="#linear-gradient"/><linearGradient id="linear-gradient-8" x1="667.47" y1="100.44" x2="667.47" y2="171.89" xlink:href="#linear-gradient"/><linearGradient id="linear-gradient-9" x1="756.24" y1="100.44" x2="756.24" y2="171.89" xlink:href="#linear-gradient"/></defs><title>Artboard 1</title><g class="cls-1"><circle class="cls-2" cx="46.05" cy="65.83" r="35.72"/></g><circle class="cls-3" cx="46.05" cy="65.64" r="34.97"/><path class="cls-4" d="M46.15,100.7A34.69,34.69,0,0,0,65.37,95c-1.29-7-6.19-7.44-6.19-7.44h-27s-4.62.38-6.07,6.86A34.77,34.77,0,0,0,46.15,100.7Z"/><circle class="cls-5" cx="45.78" cy="64.87" r="15.5"/><path class="cls-6" d="M40.33,78.93H51.15v8.65A5.41,5.41,0,0,1,45.74,93h0a5.41,5.41,0,0,1-5.4-5.41h0V78.93Z"/><path class="cls-7" d="M41.37,78.53h8.75a1,1,0,0,1,1,1h0v7.62a5.41,5.41,0,0,1-5.41,5.41h0a5.41,5.41,0,0,1-5.4-5.41h0V79.56A1,1,0,0,1,41.37,78.53Z"/><path class="cls-6" d="M40.35,83a15.55,15.55,0,0,0,10.82,0V81.71H40.35Z"/><circle class="cls-7" cx="45.78" cy="68.23" r="15.5"/><path class="cls-5" d="M36.39,61.84a2.7,2.7,0,0,1,1-1.75A2.82,2.82,0,0,1,39,59.88c4.28.24,8.53-.74,12.7-1.76,2.38-.58,4.93-1.29,6.47-3.21s-.47-8-2.81-8.67c-1.54-.47-3.33.41-4.79-.28a9.39,9.39,0,0,1-1.69-1.34A10.22,10.22,0,0,0,44.83,43c-1.67-.41-3.47-.82-5.06-.15-1.23.51-2.13,1.59-3.3,2.23-2.22,1.24-4.93.66-7.48.66-.86,0-1.89.17-2.23,1a3.87,3.87,0,0,0,0,1.73c.07,1.85-1.45,3.29-2.73,4.62s-2.49,3.24-1.68,4.9c.31.63.87,1.11,1.19,1.73.55,1.09.28,2.4.48,3.6a9.28,9.28,0,0,0,1,2.59c.95,1.85,5.72,11.8,7.91,9.27,1.06-1.23,1.24-4.79,1.66-6.4C35.17,66.41,35.77,64.12,36.39,61.84Z"/><ellipse class="cls-7" cx="34.75" cy="67.67" rx="1.44" ry="2.7"/><g class="cls-1"><circle class="cls-8" cx="401.14" cy="65.83" r="35.72"/></g><circle class="cls-3" cx="401.21" cy="65.61" r="34.97"/><path class="cls-4" d="M401.24,100.71A34.79,34.79,0,0,0,420.45,95c-1.29-7-6.19-7.44-6.19-7.44h-27s-4.62.37-6.07,6.85A34.8,34.8,0,0,0,401.24,100.71Z"/><circle class="cls-9" cx="400.87" cy="64.87" r="16.88"/><path class="cls-6" d="M395.43,78.93h10.81v8.65a5.41,5.41,0,0,1-5.4,5.41h0a5.41,5.41,0,0,1-5.41-5.41h0V78.93Z"/><path class="cls-10" d="M396.46,78.53h8.75a1,1,0,0,1,1,1h0v7.62a5.41,5.41,0,0,1-5.4,5.41h0a5.41,5.41,0,0,1-5.41-5.41h0V79.56a1,1,0,0,1,1-1Z"/><path class="cls-6" d="M395.45,83a15.53,15.53,0,0,0,10.81,0V81.71H395.45Z"/><circle class="cls-10" cx="400.87" cy="68.23" r="15.5"/><circle class="cls-9" cx="400.85" cy="47.7" r="6.24"/><circle class="cls-9" cx="400.85" cy="41.56" r="4.1"/><path class="cls-9" d="M398.15,51.12a6.23,6.23,0,0,1-3.26-8l-.12.27a6.24,6.24,0,1,0,11.38,5.11l.12-.27A6.24,6.24,0,0,1,398.15,51.12Z"/><path class="cls-6" d="M389.84,54.14s6.53,13.25,25,5.54L410.51,53l-7.6-2.74Z"/><path class="cls-9" d="M389.84,53.94s6.53,13.25,25,5.55l-4.29-6.73L402.91,50Z"/><path class="cls-5" d="M394.87,49.11a78.57,78.57,0,0,1,12.08,0S398,49.94,394.87,49.11Z"/><path class="cls-9" d="M401.79,37.21a4.17,4.17,0,0,0-.93.07h.24a4.1,4.1,0,0,1,.62,8.12,4.1,4.1,0,1,0,.07-8.19Z"/><ellipse class="cls-10" cx="385.37" cy="68.22" rx="1.44" ry="2.7"/><ellipse class="cls-10" cx="416.37" cy="68.22" rx="1.44" ry="2.7"/><polygon class="cls-9" points="388.86 54.33 391.88 52.77 392.56 55.27 390.71 56.53 388.86 54.33"/><g class="cls-1"><circle class="cls-11" cx="134.82" cy="65.83" r="35.72"/></g><circle class="cls-3" cx="134.82" cy="65.64" r="34.97"/><path class="cls-5" d="M121.18,66s-4,19.53-6.13,18.45c0,0,20.87,18,39.3,0,0,0-3.25-13.76-7.93-18.45Z"/><path class="cls-4" d="M134.92,100.71A34.83,34.83,0,0,0,154.14,95c-1.29-7-6.19-7.44-6.19-7.44h-27s-4.62.37-6.07,6.85A34.78,34.78,0,0,0,134.92,100.71Z"/><circle class="cls-5" cx="134.55" cy="64.87" r="15.5"/><path class="cls-6" d="M129.1,78.93h10.82v8.65a5.41,5.41,0,0,1-5.4,5.41h0a5.41,5.41,0,0,1-5.4-5.41V78.93Z"/><path class="cls-7" d="M130.14,78.53h8.75a1,1,0,0,1,1,1h0v7.62a5.41,5.41,0,0,1-5.4,5.41h0a5.41,5.41,0,0,1-5.4-5.41h0V79.56A1,1,0,0,1,130.14,78.53Z"/><path class="cls-6" d="M129.13,83a15.53,15.53,0,0,0,10.81,0V81.71H129.13Z"/><circle class="cls-7" cx="134.55" cy="68.23" r="15.5"/><path class="cls-5" d="M119.73,62.34h29.56s-2.52-11.93-13.69-11.17S119.73,62.34,119.73,62.34Z"/><ellipse class="cls-7" cx="119.37" cy="67.57" rx="1.44" ry="2.7"/><ellipse class="cls-7" cx="149.65" cy="67.57" rx="1.44" ry="2.7"/><path class="cls-6" d="M119.73,62.75h29.56s-2.52-11.94-13.69-11.18S119.73,62.75,119.73,62.75Z"/><g class="cls-1"><circle class="cls-12" cx="223.6" cy="65.83" r="35.72"/></g><circle class="cls-3" cx="223.66" cy="65.6" r="34.97"/><path class="cls-4" d="M223.69,100.71A34.86,34.86,0,0,0,242.92,95c-1.3-7-6.2-7.45-6.2-7.45h-27s-4.63.38-6.07,6.86A34.75,34.75,0,0,0,223.69,100.71Z"/><circle class="cls-13" cx="223.33" cy="64.87" r="16.88"/><path class="cls-6" d="M217.88,78.92h10.81v8.66A5.4,5.4,0,0,1,223.3,93h0a5.41,5.41,0,0,1-5.41-5.4V78.92Z"/><path class="cls-10" d="M218.9,78.52h8.75a1,1,0,0,1,1,1v7.62a5.41,5.41,0,0,1-5.41,5.4h0a5.41,5.41,0,0,1-5.41-5.4V79.56a1,1,0,0,1,1-1Z"/><path class="cls-6" d="M217.89,83a15.61,15.61,0,0,0,10.82,0V81.71H217.89Z"/><circle class="cls-10" cx="223.33" cy="68.23" r="15.5"/><path class="cls-6" d="M212.29,54.13s6.53,13.26,25,5.55L233,53l-7.6-2.73Z"/><path class="cls-13" d="M212.29,53.94s6.53,13.25,25,5.55L233,52.76,225.36,50Z"/><path class="cls-13" d="M212.23,53a9,9,0,0,1,2.22-3.61c3.05-3,8.05-3.65,10.61-7.09a2,2,0,0,1-.74,2.74l-.18.09c2.46,0,5.3-.23,6.69-2.25a4.58,4.58,0,0,1-.78,4.85c2.18.1,4.5,1.58,4.65,3.75a4.34,4.34,0,0,1-2,3.65,10.92,10.92,0,0,1-4.05,1.52C224.51,57.61,209.53,61.44,212.23,53Z"/><path class="cls-13" d="M238.83,68.37h-.41l-8,7.12c-7.7-3.61-13.36,0-13.36,0l-8.38-6.82-.84.1a15.5,15.5,0,0,0,31-.4Zm-15.52,9.85c-3,0-5.46-.62-5.46-1.37s2.44-1.37,5.46-1.37,5.46.62,5.46,1.37-2.45,1.37-5.47,1.37Z"/><ellipse class="cls-10" cx="207.82" cy="68.22" rx="1.44" ry="2.7"/><ellipse class="cls-10" cx="238.83" cy="68.22" rx="1.44" ry="2.7"/><g class="cls-1"><circle class="cls-14" cx="312.37" cy="65.83" r="35.72"/></g><circle class="cls-3" cx="312.44" cy="65.61" r="34.97"/><path class="cls-4" d="M312.47,100.71A34.85,34.85,0,0,0,331.69,95c-1.29-7-6.19-7.44-6.19-7.44H298.45s-4.63.37-6.08,6.85A34.79,34.79,0,0,0,312.47,100.71Z"/><circle class="cls-5" cx="312.1" cy="64.87" r="16.88"/><path class="cls-6" d="M306.65,78.93h10.82v8.65A5.41,5.41,0,0,1,312.06,93h0a5.41,5.41,0,0,1-5.4-5.41h0V78.93Z"/><path class="cls-15" d="M307.69,78.53h8.75a1,1,0,0,1,1,1h0v7.63a5.41,5.41,0,0,1-5.41,5.4h0a5.41,5.41,0,0,1-5.41-5.4h0V79.56a1,1,0,0,1,1-1h0Z"/><path class="cls-6" d="M306.67,83a15.55,15.55,0,0,0,10.82,0V81.7H306.67Z"/><circle class="cls-15" cx="312.1" cy="68.23" r="15.5"/><path class="cls-6" d="M301.06,54.13s6.53,13.26,25,5.55L321.74,53l-7.61-2.73Z"/><path class="cls-5" d="M301.06,53.94s6.53,13.25,25,5.55l-4.29-6.73L314.13,50Z"/><path class="cls-5" d="M301,53a9,9,0,0,1,2.22-3.61c3-3,8-3.65,10.61-7.09a2,2,0,0,1-.74,2.74l-.18.09c2.47,0,5.3-.23,6.69-2.25a4.6,4.6,0,0,1-.77,4.85c2.17.1,4.5,1.57,4.64,3.75a4.32,4.32,0,0,1-2,3.65,11.29,11.29,0,0,1-4,1.53C313.28,57.62,298.3,61.44,301,53Z"/><ellipse class="cls-15" cx="296.59" cy="68.22" rx="1.44" ry="2.7"/><ellipse class="cls-15" cx="327.6" cy="68.22" rx="1.44" ry="2.7"/><g class="cls-1"><circle class="cls-16" cx="489.92" cy="65.83" r="35.72"/></g><circle class="cls-3" cx="489.92" cy="65.64" r="34.97"/><path class="cls-17" d="M509.26,68.78c0,12.88-8.4,27.22-18.77,27.22s-18.76-14.34-18.76-27.22,8.41-19.42,18.77-19.42S509.26,55.91,509.26,68.78Z"/><path class="cls-4" d="M490,100.71A34.74,34.74,0,0,0,509.24,95c-1.29-7-6.19-7.44-6.19-7.44H476s-4.62.38-6.07,6.86A34.77,34.77,0,0,0,490,100.71Z"/><path class="cls-6" d="M484.2,78.93H495v8.65A5.41,5.41,0,0,1,489.61,93h0a5.41,5.41,0,0,1-5.4-5.41V78.93Z"/><path class="cls-15" d="M485.24,78.53H494a1,1,0,0,1,1,1v7.62a5.41,5.41,0,0,1-5.41,5.41h0a5.41,5.41,0,0,1-5.4-5.41V79.56A1,1,0,0,1,485.24,78.53Z"/><path class="cls-6" d="M484.23,83A15.53,15.53,0,0,0,495,83V81.71H484.23Z"/><circle class="cls-15" cx="489.65" cy="68.23" r="15.5"/><ellipse class="cls-15" cx="474.47" cy="67.57" rx="1.44" ry="2.7"/><ellipse class="cls-15" cx="504.75" cy="67.57" rx="1.44" ry="2.7"/><path class="cls-6" d="M475.92,59.83s8.76,12,28.86,7.89c0,0,2.24-2.73-3.22-11.11S480.89,49.59,475.92,59.83Z"/><path class="cls-17" d="M475.92,59.63s8.76,12,28.86,7.9c0,0,2.24-2.73-3.22-11.12S480.89,49.4,475.92,59.63Z"/><g class="cls-1"><circle class="cls-18" cx="578.69" cy="65.83" r="35.72"/></g><circle class="cls-3" cx="578.76" cy="65.61" r="34.97"/><path class="cls-5" d="M598,69.05c0,11.63-8.36,17.36-19.21,17.36s-20.08-5.73-20.08-17.36S567.5,48,578.35,48,598,57.41,598,69.05Z"/><path class="cls-4" d="M578.79,100.71A34.86,34.86,0,0,0,598,95c-1.29-7-6.2-7.44-6.2-7.44h-27s-4.63.37-6.08,6.85A34.78,34.78,0,0,0,578.79,100.71Z"/><path class="cls-6" d="M573,78.92h10.81v8.65A5.41,5.41,0,0,1,578.4,93h0A5.41,5.41,0,0,1,573,87.58V78.92Z"/><path class="cls-10" d="M574,78.53h8.75a1,1,0,0,1,1,1v7.62a5.41,5.41,0,0,1-5.41,5.41h0A5.41,5.41,0,0,1,573,87.18V79.56a1,1,0,0,1,1-1Z"/><path class="cls-6" d="M573,83a15.55,15.55,0,0,0,10.82,0V81.71H573Z"/><circle class="cls-10" cx="578.42" cy="68.23" r="15.5"/><path class="cls-6" d="M560.56,69.25a27.85,27.85,0,0,0,17-10.53s9.66,10.62,16.38,9.45c0,0,3.9-4.09,0-8.19S587,50.72,581.8,51.4s-11.5,1-14.23,3.41S560.56,69.25,560.56,69.25Z"/><path class="cls-5" d="M560.56,69.05a27.79,27.79,0,0,0,17-10.53s9.66,10.63,16.38,9.46c0,0,3.9-4.1,0-8.19S587,50.53,581.8,51.21s-11.49,1-14.22,3.43S560.56,69.05,560.56,69.05Z"/><ellipse class="cls-10" cx="562.92" cy="68.22" rx="1.44" ry="2.7"/><ellipse class="cls-10" cx="593.92" cy="68.22" rx="1.44" ry="2.7"/><g class="cls-1"><circle class="cls-19" cx="667.47" cy="65.83" r="35.72"/></g><circle class="cls-3" cx="667.53" cy="65.61" r="34.97"/><path class="cls-4" d="M667.57,100.71A34.79,34.79,0,0,0,686.78,95c-1.28-7-6.19-7.44-6.19-7.44H653.54s-4.62.37-6.07,6.85A34.74,34.74,0,0,0,667.57,100.71Z"/><circle class="cls-5" cx="667.2" cy="64.87" r="16.88"/><path class="cls-6" d="M661.75,78.93h10.82v8.65A5.41,5.41,0,0,1,667.16,93h0a5.41,5.41,0,0,1-5.41-5.41h0V78.93Z"/><path class="cls-15" d="M662.78,78.53h8.75a1,1,0,0,1,1,1h0v7.63a5.41,5.41,0,0,1-5.41,5.4h0a5.41,5.41,0,0,1-5.41-5.4h0V79.56a1,1,0,0,1,1-1h0Z"/><path class="cls-6" d="M661.77,83a15.55,15.55,0,0,0,10.82,0V81.7H661.77Z"/><circle class="cls-15" cx="667.2" cy="68.23" r="15.5"/><path class="cls-6" d="M656.16,54.13s6.53,13.26,25,5.55L676.83,53l-7.6-2.73Z"/><path class="cls-5" d="M656.16,53.94s6.53,13.25,25,5.55l-4.3-6.73L669.23,50Z"/><path class="cls-5" d="M656.1,53a9,9,0,0,1,2.22-3.61c3-3,8-3.65,10.61-7.09a2,2,0,0,1-.74,2.74l-.18.09c2.46,0,5.3-.23,6.69-2.25a4.58,4.58,0,0,1-.78,4.85c2.18.1,4.51,1.57,4.65,3.75a4.34,4.34,0,0,1-2,3.65,11.29,11.29,0,0,1-4,1.53C668.37,57.62,653.4,61.44,656.1,53Z"/><ellipse class="cls-15" cx="651.69" cy="68.22" rx="1.44" ry="2.7"/><ellipse class="cls-15" cx="682.69" cy="68.22" rx="1.44" ry="2.7"/><g class="cls-1"><circle class="cls-20" cx="756.24" cy="65.83" r="35.72"/></g><circle class="cls-3" cx="756.24" cy="65.64" r="34.97"/><path class="cls-5" d="M742.6,66s-4,19.53-6.13,18.45c0,0,20.87,18,39.3,0,0,0-3.25-13.76-7.93-18.45Z"/><path class="cls-4" d="M756.34,100.71A34.83,34.83,0,0,0,775.56,95c-1.29-7-6.19-7.44-6.19-7.44h-27s-4.62.37-6.07,6.85A34.78,34.78,0,0,0,756.34,100.71Z"/><circle class="cls-5" cx="755.97" cy="64.87" r="15.5"/><path class="cls-6" d="M750.52,78.93h10.82v8.65a5.42,5.42,0,0,1-5.4,5.41h0a5.41,5.41,0,0,1-5.4-5.41V78.93Z"/><path class="cls-7" d="M751.56,78.53h8.75a1,1,0,0,1,1,1h0v7.62a5.42,5.42,0,0,1-5.4,5.41h0a5.41,5.41,0,0,1-5.4-5.41h0V79.56A1,1,0,0,1,751.56,78.53Z"/><path class="cls-6" d="M750.55,83a15.53,15.53,0,0,0,10.81,0V81.71H750.55Z"/><circle class="cls-7" cx="755.97" cy="68.23" r="15.5"/><path class="cls-5" d="M741.15,62.34h29.56S768.19,50.41,757,51.17,741.15,62.34,741.15,62.34Z"/><ellipse class="cls-7" cx="740.79" cy="67.57" rx="1.44" ry="2.7"/><ellipse class="cls-7" cx="771.07" cy="67.57" rx="1.44" ry="2.7"/><path class="cls-6" d="M741.15,62.75h29.56S768.19,50.81,757,51.57,741.15,62.75,741.15,62.75Z"/><path class="cls-21" d="M800,200H0c154-54,287-59,366-61,0,0,386-9,434-47Z"/></svg>