<svg id="Layer_1" data-name="Layer 1" xmlns="http://www.w3.org/2000/svg" viewBox="0 0 800 200"><defs><style>.cls-1{fill:#00c853;}.cls-2{fill:none;}.cls-3{fill:#d7dee2;}.cls-4{fill:#77959e;}.cls-5{fill:#a5d6a7;}.cls-6{fill:#ffcb5a;}.cls-7{fill:#80deea;}.cls-8{fill:#e76e54;}.cls-9{fill:#e6e7e8;}.cls-10{fill:#547580;}.cls-11{fill:#464f5d;}.cls-12{fill:#cc4b4c;}.cls-13{fill:#f0c419;}.cls-14{fill:#71c285;}.cls-15{fill:#3b97d3;}.cls-16{fill:#ff5364;}.cls-17{fill:#f29c1f;}.cls-18{fill:#9fc9d3;}.cls-19{fill:#f3d55b;}.cls-20{fill:#68607c;}.cls-21{fill:#4e9bb9;}.cls-22{fill:#91cbd7;}.cls-23{fill:#ffd086;}.cls-24{fill:#ed6571;}.cls-25{fill:#f69489;}.cls-26{fill:#2d366d;}.cls-27{fill:#fda22e;}.cls-28{fill:#4bbee5;}.cls-29{fill:#f82f45;}.cls-30{fill:#266cb2;}.cls-31{fill:#114378;}.cls-32{fill:#4db2ff;}.cls-33{fill:#fe3b7f;}.cls-34{fill:#ff6e84;}.cls-35{fill:#80c9ff;}.cls-36{fill:#ffb742;}.cls-37{fill:#fe8100;}</style></defs><title>Artboard 2</title><path class="cls-1" d="M314.62,89.31V82.59h-5.24v6.72h-2.9V73.88h2.9v6.2h5.24v-6.2h2.91V89.31Z"/><path class="cls-1" d="M327.81,89.31l-.07-1.57a10.67,10.67,0,0,1-.79.73,4.72,4.72,0,0,1-2,1,5.7,5.7,0,0,1-1.28.14,4.43,4.43,0,0,1-1.62-.27,3.29,3.29,0,0,1-1.17-.76,3.14,3.14,0,0,1-.71-1.17,4.51,4.51,0,0,1-.25-1.51,3.48,3.48,0,0,1,.36-1.57,3.4,3.4,0,0,1,1.1-1.24,6,6,0,0,1,1.84-.81,10,10,0,0,1,2.59-.3h1.57v-.72a2.45,2.45,0,0,0-.13-.83,1.41,1.41,0,0,0-.41-.63,2.07,2.07,0,0,0-.75-.4,3.78,3.78,0,0,0-1.14-.14,9.18,9.18,0,0,0-2.09.24,10.71,10.71,0,0,0-2,.68v-2.3a11,11,0,0,1,2-.57,11.91,11.91,0,0,1,2.34-.22,9,9,0,0,1,2.29.25,4,4,0,0,1,1.57.76,3,3,0,0,1,.92,1.27,4.85,4.85,0,0,1,.29,1.78v8.19Zm-.42-5.3h-1.75a4.41,4.41,0,0,0-1.24.14,2.21,2.21,0,0,0-.83.39,1.5,1.5,0,0,0-.47.57,1.64,1.64,0,0,0-.14.69,1.35,1.35,0,0,0,.47,1.12,2,2,0,0,0,1.28.38,2.29,2.29,0,0,0,1.26-.44,8.74,8.74,0,0,0,1.42-1.25Z"/><path class="cls-1" d="M344.37,83.1A7.88,7.88,0,0,1,343.9,86a5.42,5.42,0,0,1-1.3,2,5.28,5.28,0,0,1-2,1.18,7.85,7.85,0,0,1-2.47.38,6.8,6.8,0,0,1-.9-.06,7.38,7.38,0,0,1-.81-.15V94h-2.88V77.31h2.49l.07,1.78a7.77,7.77,0,0,1,.76-.84,4.52,4.52,0,0,1,.86-.65,4,4,0,0,1,1-.4,4.37,4.37,0,0,1,1.19-.14,4.11,4.11,0,0,1,1.89.42,3.92,3.92,0,0,1,1.39,1.21,5.93,5.93,0,0,1,.85,1.9A9.65,9.65,0,0,1,344.37,83.1Zm-3,.12a8.21,8.21,0,0,0-.14-1.69,3.76,3.76,0,0,0-.4-1.15,1.76,1.76,0,0,0-.65-.65,1.82,1.82,0,0,0-.88-.21,2.1,2.1,0,0,0-1.4.59,9.85,9.85,0,0,0-1.41,1.61V87a4.67,4.67,0,0,0,.84.21,5.84,5.84,0,0,0,1,.08,2.73,2.73,0,0,0,1.25-.28,2.81,2.81,0,0,0,.95-.8,3.66,3.66,0,0,0,.61-1.27A6.23,6.23,0,0,0,341.34,83.22Z"/><path class="cls-1" d="M357.66,83.1a7.88,7.88,0,0,1-.47,2.85,5.42,5.42,0,0,1-1.3,2,5.28,5.28,0,0,1-2,1.18,7.85,7.85,0,0,1-2.47.38,6.8,6.8,0,0,1-.9-.06,7.38,7.38,0,0,1-.81-.15V94h-2.88V77.31h2.49l.07,1.78a7.77,7.77,0,0,1,.76-.84,4.52,4.52,0,0,1,.86-.65,4,4,0,0,1,1-.4,4.37,4.37,0,0,1,1.19-.14,4.11,4.11,0,0,1,1.89.42,3.92,3.92,0,0,1,1.39,1.21,5.93,5.93,0,0,1,.85,1.9A9.65,9.65,0,0,1,357.66,83.1Zm-3,.12a8.21,8.21,0,0,0-.14-1.69,3.76,3.76,0,0,0-.4-1.15,1.76,1.76,0,0,0-.65-.65,1.82,1.82,0,0,0-.88-.21,2.1,2.1,0,0,0-1.4.59,9.85,9.85,0,0,0-1.41,1.61V87a4.67,4.67,0,0,0,.84.21,5.84,5.84,0,0,0,1,.08,2.73,2.73,0,0,0,1.25-.28,2.81,2.81,0,0,0,.95-.8,3.66,3.66,0,0,0,.61-1.27A6.23,6.23,0,0,0,354.63,83.22Z"/><path class="cls-1" d="M367.37,88a21.91,21.91,0,0,1-1.3,2.73,9.11,9.11,0,0,1-1.5,2,5.6,5.6,0,0,1-1.81,1.18,6.08,6.08,0,0,1-2.24.39l-.64,0c-.23,0-.47,0-.71-.08V91.7l.32.06.39,0,.4,0h.39a2.36,2.36,0,0,0,.92-.18,3.08,3.08,0,0,0,.78-.53,4.08,4.08,0,0,0,.66-.8,7,7,0,0,0,.52-1l-4.76-12H362l2.49,6.8.74,2.2.74-2.1,2.51-6.9h3.09Z"/><path class="cls-1" d="M397,88.7a12.2,12.2,0,0,1-2,.62,10,10,0,0,1-2,.2A8.18,8.18,0,0,1,390,89a5.59,5.59,0,0,1-2.16-1.46,6.34,6.34,0,0,1-1.33-2.4,12.54,12.54,0,0,1,0-6.8A7.14,7.14,0,0,1,388,75.81a5.88,5.88,0,0,1,2.24-1.59,7.49,7.49,0,0,1,2.95-.55l1,0c.31,0,.61,0,.91.09s.61.1.91.17.63.16,1,.27V77.1a9.32,9.32,0,0,0-1.91-.67,8,8,0,0,0-1.66-.2,4.13,4.13,0,0,0-1.87.39,3.52,3.52,0,0,0-1.28,1.11,5,5,0,0,0-.74,1.7,9.19,9.19,0,0,0-.24,2.17,9,9,0,0,0,.25,2.24,4.82,4.82,0,0,0,.74,1.67,3.39,3.39,0,0,0,1.3,1,4.54,4.54,0,0,0,1.88.36,4.25,4.25,0,0,0,.84-.08,7.57,7.57,0,0,0,.92-.2,9,9,0,0,0,.92-.29c.31-.12.59-.23.85-.35Z"/><path class="cls-1" d="M410.83,83.22a8,8,0,0,1-.4,2.59,5.86,5.86,0,0,1-1.16,2,5.12,5.12,0,0,1-1.85,1.3,6.55,6.55,0,0,1-2.5.46,6.85,6.85,0,0,1-2.39-.39A4.7,4.7,0,0,1,400.75,88a5.14,5.14,0,0,1-1.12-1.94,8.51,8.51,0,0,1-.39-2.71,7.57,7.57,0,0,1,.41-2.59,5.72,5.72,0,0,1,1.16-2,5.2,5.2,0,0,1,1.86-1.28,6.49,6.49,0,0,1,2.48-.45,6.86,6.86,0,0,1,2.4.39,4.63,4.63,0,0,1,1.78,1.18,5.13,5.13,0,0,1,1.12,1.92A8.64,8.64,0,0,1,410.83,83.22Zm-3,.07a4.66,4.66,0,0,0-.7-2.81,2.44,2.44,0,0,0-2.07-.93,2.4,2.4,0,0,0-2.16,1.1,3.42,3.42,0,0,0-.5,1.2,6.16,6.16,0,0,0-.16,1.46,4.53,4.53,0,0,0,.75,2.83,2.51,2.51,0,0,0,2.07,1,2.62,2.62,0,0,0,1.25-.29,2.36,2.36,0,0,0,.86-.8,4,4,0,0,0,.5-1.21A6.57,6.57,0,0,0,407.83,83.29Z"/><path class="cls-1" d="M420.86,89.31l-.07-1.77a8.87,8.87,0,0,1-.78.83,4.42,4.42,0,0,1-.86.65,4.8,4.8,0,0,1-1,.41,4.18,4.18,0,0,1-1.16.15,4,4,0,0,1-1.89-.43,3.72,3.72,0,0,1-1.38-1.21,5.73,5.73,0,0,1-.86-1.9,9.7,9.7,0,0,1-.29-2.5,8,8,0,0,1,.46-2.87,5.49,5.49,0,0,1,1.29-2,5.15,5.15,0,0,1,2-1.18,7.57,7.57,0,0,1,2.47-.39,6.8,6.8,0,0,1,.9.06,6.58,6.58,0,0,1,.81.15V72.63h2.88V89.31Zm-5.26-5.9a9.14,9.14,0,0,0,.13,1.69,3.76,3.76,0,0,0,.4,1.15,1.64,1.64,0,0,0,.66.65,1.82,1.82,0,0,0,.88.21,2.1,2.1,0,0,0,1.4-.59,9.6,9.6,0,0,0,1.4-1.62V79.66a5.7,5.7,0,0,0-.84-.21,6.87,6.87,0,0,0-1-.08,2.68,2.68,0,0,0-1.25.28,2.81,2.81,0,0,0-.95.8,3.66,3.66,0,0,0-.61,1.27A6.25,6.25,0,0,0,415.6,83.41Z"/><path class="cls-1" d="M430.48,79.56h-3.39V77.31h6.34v9.75h3.46v2.25H426.68V87.06h3.8ZM433.67,74a2,2,0,0,1-.14.74,2,2,0,0,1-.4.59,1.91,1.91,0,0,1-.6.4,1.78,1.78,0,0,1-.74.15,1.86,1.86,0,0,1-.75-.15,1.91,1.91,0,0,1-.6-.4,2,2,0,0,1-.4-.59,2,2,0,0,1-.14-.74,2,2,0,0,1,.14-.73,1.91,1.91,0,0,1,.4-.6,1.94,1.94,0,0,1,.6-.41,1.86,1.86,0,0,1,.75-.14,1.78,1.78,0,0,1,.74.14,1.94,1.94,0,0,1,.6.41,1.91,1.91,0,0,1,.4.6A2,2,0,0,1,433.67,74Z"/><path class="cls-1" d="M447.05,89.31V81.49c0-1.31-.49-2-1.46-2a2.1,2.1,0,0,0-1.4.59,10.9,10.9,0,0,0-1.41,1.61v7.59H439.9v-12h2.49l.07,1.78a7.77,7.77,0,0,1,.76-.84,4.86,4.86,0,0,1,.86-.65,4,4,0,0,1,1-.4,4.37,4.37,0,0,1,1.19-.14,4,4,0,0,1,1.61.3,3.11,3.11,0,0,1,1.14.85,3.46,3.46,0,0,1,.69,1.32,5.8,5.8,0,0,1,.23,1.73v8Z"/><path class="cls-1" d="M462.18,79.42a2.51,2.51,0,0,1,.47.86,3.33,3.33,0,0,1,.14.93,4.27,4.27,0,0,1-.35,1.77,3.57,3.57,0,0,1-1,1.29,4.5,4.5,0,0,1-1.51.78,6.66,6.66,0,0,1-1.95.27,4.66,4.66,0,0,1-1.15-.13,2.66,2.66,0,0,1-.8-.29,2.48,2.48,0,0,0-.35.45,1.1,1.1,0,0,0-.14.55.74.74,0,0,0,.1.37,1,1,0,0,0,.27.34,1.55,1.55,0,0,0,.44.24,2,2,0,0,0,.57.11l2.85.1a7.07,7.07,0,0,1,1.73.25,4,4,0,0,1,1.32.62A2.67,2.67,0,0,1,464,90.2a3.39,3.39,0,0,1-.38,1.59,3.65,3.65,0,0,1-1.14,1.29,6.14,6.14,0,0,1-1.89.87,9.89,9.89,0,0,1-2.63.31,11.38,11.38,0,0,1-2.5-.23,5.23,5.23,0,0,1-1.71-.64,2.84,2.84,0,0,1-1-1,2.55,2.55,0,0,1-.31-1.25,2.71,2.71,0,0,1,.1-.77,2.63,2.63,0,0,1,.32-.68,4.22,4.22,0,0,1,.53-.63,6.32,6.32,0,0,1,.76-.61,2.32,2.32,0,0,1-.88-.85,2.2,2.2,0,0,1-.3-1.11,2.57,2.57,0,0,1,.1-.75,4,4,0,0,1,.28-.67,4,4,0,0,1,.4-.61c.15-.2.3-.39.47-.58a3.76,3.76,0,0,1-.73-1.06,3.7,3.7,0,0,1-.29-1.55,4.27,4.27,0,0,1,.36-1.79,3.85,3.85,0,0,1,1-1.32,4.27,4.27,0,0,1,1.52-.81,6.12,6.12,0,0,1,1.91-.28c.36,0,.7,0,1,0a5.6,5.6,0,0,1,.89.18h4.15v2.11ZM455.4,90.9a1.08,1.08,0,0,0,.7,1,4.78,4.78,0,0,0,2,.33,4.91,4.91,0,0,0,1.37-.16,2.9,2.9,0,0,0,.92-.4,1.44,1.44,0,0,0,.5-.58,1.48,1.48,0,0,0,.16-.68,1,1,0,0,0-.15-.54,1.31,1.31,0,0,0-.41-.36,2.23,2.23,0,0,0-.63-.23,6,6,0,0,0-.8-.1l-2.53,0a3.53,3.53,0,0,0-.56.44,2.51,2.51,0,0,0-.35.42,1.45,1.45,0,0,0-.16.42A2.15,2.15,0,0,0,455.4,90.9Zm.48-9.62a2.08,2.08,0,0,0,.56,1.52,2.13,2.13,0,0,0,1.56.56,2.2,2.2,0,0,0,.93-.18,1.89,1.89,0,0,0,.66-.47A2.13,2.13,0,0,0,460,82a2.75,2.75,0,0,0,.13-.81A2,2,0,0,0,458,79.09a2.27,2.27,0,0,0-.93.17,1.87,1.87,0,0,0-.65.48,2.18,2.18,0,0,0-.39.7A2.63,2.63,0,0,0,455.88,81.28Z"/><path class="cls-1" d="M484.77,85.9a1.75,1.75,0,0,1,.72.14,1.65,1.65,0,0,1,.58.39,1.82,1.82,0,0,1,.4.58,1.8,1.8,0,0,1,.15.73,1.72,1.72,0,0,1-.15.72,1.87,1.87,0,0,1-.4.59,2,2,0,0,1-.58.39,1.92,1.92,0,0,1-.72.14,1.87,1.87,0,0,1-.71-.14,2,2,0,0,1-.58-.39,1.69,1.69,0,0,1-.39-.59,1.72,1.72,0,0,1-.15-.72,1.8,1.8,0,0,1,.15-.73,1.82,1.82,0,0,1,1-1A1.7,1.7,0,0,1,484.77,85.9ZM486,84.51h-2.46l-.44-11.88h3.34Z"/><path class="cls-1" d="M498.06,85.9a1.75,1.75,0,0,1,.72.14,1.65,1.65,0,0,1,.58.39,1.82,1.82,0,0,1,.4.58,1.8,1.8,0,0,1,.15.73,1.72,1.72,0,0,1-.15.72,1.87,1.87,0,0,1-.4.59,2,2,0,0,1-.58.39,1.92,1.92,0,0,1-.72.14,1.87,1.87,0,0,1-.71-.14,2,2,0,0,1-.58-.39,1.69,1.69,0,0,1-.39-.59,1.72,1.72,0,0,1-.15-.72,1.8,1.8,0,0,1,.15-.73,1.82,1.82,0,0,1,1-1A1.7,1.7,0,0,1,498.06,85.9Zm1.24-1.39h-2.46l-.44-11.88h3.34Z"/><path class="cls-1" d="M511.35,85.9a1.75,1.75,0,0,1,.72.14,1.65,1.65,0,0,1,.58.39,1.82,1.82,0,0,1,.4.58,1.8,1.8,0,0,1,.15.73,1.72,1.72,0,0,1-.15.72,1.87,1.87,0,0,1-.4.59,2,2,0,0,1-.58.39,1.92,1.92,0,0,1-.72.14,1.87,1.87,0,0,1-.71-.14,2,2,0,0,1-.58-.39,1.69,1.69,0,0,1-.39-.59,1.72,1.72,0,0,1-.15-.72,1.8,1.8,0,0,1,.15-.73,1.82,1.82,0,0,1,1-1A1.7,1.7,0,0,1,511.35,85.9Zm1.24-1.39h-2.46l-.44-11.88H513Z"/><rect class="cls-2" x="25" y="-248" width="697" height="697"/><path class="cls-3" d="M542.09,123.7h-5.43V107.39h21.75v5.43H542.09Z"/><path class="cls-3" d="M547.53,129.14h10.88v5.43H547.53Z"/><path class="cls-3" d="M561.12,159H536.66V140h5.43v13.6h19Z"/><path class="cls-3" d="M569.28,115.54h5.44v10.88h-5.44Z"/><path class="cls-3" d="M569.28,137.29h5.44v10.88h-5.44Z"/><path class="cls-3" d="M569.28,164.48h5.44v10.88h-5.44Z"/><path class="cls-3" d="M601.91,118.26h5.43v19h-5.43Z"/><path class="cls-4" d="M601.91,107.39h5.43v5.43h-5.43Z"/><path class="cls-3" d="M585.59,107.39h10.88v5.43H585.59Z"/><path class="cls-3" d="M585.59,178.07h10.88v5.44H585.59Z"/><path class="cls-4" d="M601.91,178.07h5.43v5.44h-5.43Z"/><path class="cls-3" d="M601.91,153.61h5.43v19h-5.43Z"/><path class="cls-5" d="M555.69,102h32.62v16.31H555.69Z"/><path class="cls-5" d="M555.69,123.7h32.62V140H555.69Z"/><path class="cls-6" d="M580.16,189H563.84a8.16,8.16,0,0,1,0-16.31h16.32a8.16,8.16,0,0,1,0,16.31Z"/><path class="cls-7" d="M550.25,131.86A10.88,10.88,0,1,1,539.37,121,10.88,10.88,0,0,1,550.25,131.86Z"/><path class="cls-7" d="M615.5,145.45a10.88,10.88,0,1,1-10.87-10.88A10.87,10.87,0,0,1,615.5,145.45Z"/><path class="cls-8" d="M572,167.75l-17.14-11.43L572,144.9l17.14,11.42Z"/><path class="cls-9" d="M260.67,130.05l-12.61,13.6,12.61,13.6v10.57H235.45a1.56,1.56,0,0,0-1.58,1.51v10.58H208.65a3.09,3.09,0,0,1-3.15-3V116.45h55.17Z"/><path class="cls-10" d="M260.67,107.38v9.07H205.5v-9.07a3.09,3.09,0,0,1,3.15-3h48.87A3.09,3.09,0,0,1,260.67,107.38Z"/><path class="cls-11" d="M260.67,169.33a1.54,1.54,0,0,1-1.58-1.51V157.25a1.58,1.58,0,0,1,3.16,0v10.57A1.54,1.54,0,0,1,260.67,169.33Z"/><path class="cls-11" d="M289.49,181.42h-2a1.51,1.51,0,1,1,0-3h2a1.51,1.51,0,1,1,0,3Zm6.17-.6a1.57,1.57,0,0,1-1.49-1,1.46,1.46,0,0,1,.55-1.69,1.48,1.48,0,0,0,.63-1.21v-.22a1.58,1.58,0,0,1,3.15,0v.22a4.48,4.48,0,0,1-1.89,3.63,1.7,1.7,0,0,1-.95.3Zm1.26-8.68a1.62,1.62,0,0,1-1.11-.44,1.46,1.46,0,0,1-.46-1.07v-3a1.58,1.58,0,0,1,3.15,0v3a1.5,1.5,0,0,1-.46,1.07,1.64,1.64,0,0,1-1.12.44Zm0-9.07a1.57,1.57,0,0,1-1.11-.44,1.46,1.46,0,0,1-.46-1.07v-3a1.58,1.58,0,0,1,3.15,0v3a1.5,1.5,0,0,1-.46,1.07,1.6,1.6,0,0,1-1.12.44Zm0-9.06a1.62,1.62,0,0,1-1.11-.44,1.48,1.48,0,0,1-.46-1.07v-3a1.58,1.58,0,0,1,3.15,0v3a1.52,1.52,0,0,1-.46,1.07,1.64,1.64,0,0,1-1.12.44Zm-1.64-8.48a1.64,1.64,0,0,1-.75-.19,1.64,1.64,0,0,0-.76-.18H292.2a1.52,1.52,0,1,1,0-3h1.57a5.11,5.11,0,0,1,2.27.56,1.49,1.49,0,0,1,.77,1.7,1.57,1.57,0,0,1-1.53,1.14Zm-9.39-.37h-3.15a1.52,1.52,0,1,1,0-3h3.15a1.52,1.52,0,1,1,0,3Zm-9.46,0h-3.15a1.52,1.52,0,1,1,0-3h3.15a1.52,1.52,0,1,1,0,3Z"/><path class="cls-12" d="M213.38,110.4a1.58,1.58,0,1,1-1.58-1.51A1.54,1.54,0,0,1,213.38,110.4Z"/><path class="cls-13" d="M219.69,110.4a1.58,1.58,0,1,1-1.58-1.51A1.54,1.54,0,0,1,219.69,110.4Z"/><path class="cls-14" d="M226,110.4a1.58,1.58,0,1,1-1.57-1.51A1.54,1.54,0,0,1,226,110.4Z"/><path class="cls-15" d="M213.38,122.49h3.15a1.55,1.55,0,0,1,1.58,1.51v15.11H211.8V124A1.55,1.55,0,0,1,213.38,122.49Z"/><path class="cls-14" d="M226,131.56h3.15a1.54,1.54,0,0,1,1.58,1.51v6h-6.3v-6A1.54,1.54,0,0,1,226,131.56Z"/><path class="cls-16" d="M238.6,125.51h3.15a1.55,1.55,0,0,1,1.58,1.51v12.09H237V127A1.54,1.54,0,0,1,238.6,125.51Z"/><path class="cls-11" d="M227.57,175.38H211.8a1.51,1.51,0,1,1,0-3h15.77a1.51,1.51,0,1,1,0,3Z"/><path class="cls-11" d="M219.69,169.33H211.8a1.51,1.51,0,1,1,0-3h7.89a1.51,1.51,0,1,1,0,3Z"/><path class="cls-11" d="M235.45,163.29H211.8a1.51,1.51,0,1,1,0-3h23.65a1.51,1.51,0,1,1,0,3Z"/><path class="cls-11" d="M241.75,157.25H211.8a1.52,1.52,0,1,1,0-3h29.95a1.52,1.52,0,1,1,0,3Z"/><path class="cls-11" d="M244.91,151.2H211.8a1.51,1.51,0,1,1,0-3h33.11a1.51,1.51,0,1,1,0,3Z"/><path class="cls-11" d="M285.89,139.11a1.54,1.54,0,0,1-1.58-1.51v-4.53a1.58,1.58,0,0,1,3.16,0v4.53A1.54,1.54,0,0,1,285.89,139.11Z"/><path class="cls-11" d="M248.06,145.16a1.61,1.61,0,0,1-1.12-.45l-4.26-4.09H211.8a1.51,1.51,0,1,1,0-3h31.53a1.6,1.6,0,0,1,1.11.44l4.73,4.54a1.47,1.47,0,0,1,.35,1.64A1.59,1.59,0,0,1,248.06,145.16Z"/><path class="cls-17" d="M274,145.85l-10.73,11.57a3.55,3.55,0,0,1-5.16,0l-10.73-11.57a3.2,3.2,0,0,1,0-4.4l10.73-11.58a3.55,3.55,0,0,1,5.16,0L274,141.45A3.2,3.2,0,0,1,274,145.85Z"/><path class="cls-15" d="M235.45,167.82h50.44a1.55,1.55,0,0,1,1.58,1.51v21.16a1.55,1.55,0,0,1-1.58,1.51H235.45a1.55,1.55,0,0,1-1.58-1.51V169.33A1.55,1.55,0,0,1,235.45,167.82Z"/><path class="cls-18" d="M265.4,175.38H240.18a1.51,1.51,0,1,1,0-3H265.4a1.51,1.51,0,1,1,0,3Z"/><path class="cls-18" d="M281.16,181.42h-41a1.51,1.51,0,1,1,0-3h41a1.51,1.51,0,1,1,0,3Z"/><path class="cls-18" d="M254.36,187.47H240.18a1.52,1.52,0,1,1,0-3h14.18a1.52,1.52,0,1,1,0,3Z"/><path class="cls-19" d="M292.2,127a6.32,6.32,0,1,1-6.31-6A6.19,6.19,0,0,1,292.2,127Z"/><path class="cls-20" d="M383.46,119.67l22.94-8.34,1.12,3.07-22.94,8.35Z"/><path class="cls-20" d="M417.25,116.54l2.31-2.31,26.2,26.2-2.31,2.31Z"/><path class="cls-20" d="M421.46,144.28l.45-3.24,19.66,2.69-.44,3.25Z"/><path class="cls-20" d="M381.63,127.5l1.47-2.93,26.19,13.1-1.46,2.93Z"/><path class="cls-20" d="M382.73,170.65l1.47-2.93,23.45,11.76-1.47,2.93Z"/><path class="cls-20" d="M411.86,148.14h3.28V176h-3.28Z"/><path class="cls-20" d="M380.3,158.7l27.6-42.56,2.75,1.78-27.6,42.56Z"/><path class="cls-20" d="M417.81,177.26l25.85-27,2.36,2.27-25.84,27Z"/><path class="cls-20" d="M380.24,131.4l2.82-1.67,27,45.44-2.82,1.67Z"/><path class="cls-21" d="M388.93,166.16a11.14,11.14,0,0,1-1.21,5.12,11.47,11.47,0,1,1,1.21-5.12Z"/><path class="cls-22" d="M422.2,175.08a11.34,11.34,0,0,1,2.77,7.45,11.47,11.47,0,1,1-18-9.4,11.47,11.47,0,0,1,15.27,2Z"/><path class="cls-23" d="M449.53,135a11.47,11.47,0,1,1,0,22.94,11.52,11.52,0,0,1-11.46-11.47,9.88,9.88,0,0,1,.11-1.54A11.46,11.46,0,0,1,449.53,135Z"/><path class="cls-24" d="M424.85,143.13A11.46,11.46,0,0,1,402,141.59a11.18,11.18,0,0,1,1.22-5.13A11.46,11.46,0,0,1,425,141.59,9.89,9.89,0,0,1,424.85,143.13Z"/><path class="cls-25" d="M413.5,99a11.47,11.47,0,1,1,0,22.93,11.46,11.46,0,0,1-10.78-7.55A11.46,11.46,0,0,1,413.5,99Z"/><path class="cls-22" d="M388.24,119.65a11.3,11.3,0,0,1,.69,3.92,11.18,11.18,0,0,1-1.21,5.13,11.47,11.47,0,1,1,.52-9Z"/><path class="cls-26" d="M134.1,156h-8.34l-5.2-5.2H106.8v-2.6h14.84l5.2,5.2h7.26Z"/><path class="cls-26" d="M134.1,167.7h-8.34l-10.4-10.4H106.8v-2.6h9.64l10.4,10.4h7.26Z"/><path class="cls-26" d="M134.1,179.4h-7l-15.6-15.6H106.8v-2.6h5.74l15.6,15.6h6Z"/><path class="cls-26" d="M121.64,137.8H106.8v-2.6h13.76l5.2-5.2h8.34v2.6h-7.26Z"/><path class="cls-26" d="M116.44,131.3H106.8v-2.6h8.56l10.4-10.4h8.34v2.6h-7.26Z"/><path class="cls-26" d="M112.54,124.8H106.8v-2.6h4.66l15.6-15.6h7v2.6h-6Z"/><path class="cls-26" d="M106.8,141.7h27.3v2.6H106.8Z"/><path class="cls-26" d="M65.2,124.8H88.6v2.6H65.2Z"/><path class="cls-26" d="M64.45,110.25,66,108.14l23.41,16.92-1.52,2.1Z"/><path class="cls-26" d="M64.45,127.16,66,125.05,89.39,142l-1.53,2.11Z"/><path class="cls-26" d="M64.46,158.86,87.87,142l1.53,2.11L66,161Z"/><path class="cls-26" d="M64.46,144.07,66,142l23.41,16.91L87.87,161Z"/><path class="cls-26" d="M65.2,158.6H88.6v2.6H65.2Z"/><path class="cls-26" d="M65.2,141.7H88.6v2.6H65.2Z"/><path class="cls-26" d="M65.74,175.75l22.09-16.91,1.58,2.06L67.32,177.82Z"/><path class="cls-26" d="M64.46,142,87.87,125l1.52,2.11L66,144.06Z"/><circle class="cls-27" cx="135.4" cy="143" r="2.6"/><circle class="cls-27" cx="135.4" cy="154.7" r="2.6"/><circle class="cls-27" cx="135.4" cy="166.4" r="2.6"/><circle class="cls-27" cx="135.4" cy="178.1" r="2.6"/><circle class="cls-27" cx="135.4" cy="131.3" r="2.6"/><circle class="cls-27" cx="135.4" cy="119.6" r="2.6"/><circle class="cls-27" cx="135.4" cy="107.9" r="2.6"/><circle class="cls-28" cx="65.2" cy="109.2" r="5.2"/><circle class="cls-28" cx="65.2" cy="126.1" r="5.2"/><circle class="cls-28" cx="65.2" cy="143" r="5.2"/><circle class="cls-28" cx="65.2" cy="159.9" r="5.2"/><circle class="cls-28" cx="65.2" cy="176.8" r="5.2"/><path class="cls-26" d="M92.5,124.8h11.7v2.6H92.5Z"/><path class="cls-26" d="M92.5,141.7h11.7v2.6H92.5Z"/><path class="cls-26" d="M92.5,158.6h11.7v2.6H92.5Z"/><path class="cls-29" d="M105.5,166.4a2.59,2.59,0,0,1-2.6-2.6V120.9a2.6,2.6,0,1,1,5.2,0v42.9A2.59,2.59,0,0,1,105.5,166.4Z"/><circle class="cls-27" cx="88.6" cy="126.1" r="5.2"/><circle class="cls-27" cx="88.6" cy="143" r="5.2"/><circle class="cls-27" cx="88.6" cy="159.9" r="5.2"/><path class="cls-26" d="M96.4,131.3H99v2.6H96.4Z"/><path class="cls-26" d="M96.4,136.5H99v2.6H96.4Z"/><path class="cls-26" d="M96.4,146.9H99v2.6H96.4Z"/><path class="cls-26" d="M96.4,152.1H99v2.6H96.4Z"/><path class="cls-1" d="M0,100C113,8,329,41,408,54,751.08,110.46,800,0,800,0H0Z"/><path class="cls-30" d="M723,146.31h5v22.58h-5Z"/><path class="cls-30" d="M703.67,122.19l3.52-3.52,16,16-3.52,3.52Z"/><path class="cls-30" d="M703.67,158.81l16-16,3.52,3.52-16,16Z"/><path class="cls-30" d="M691.32,146.93l4.61-1.9,5.47,13.28-4.6,1.9Z"/><path class="cls-30" d="M691.32,134.07l5.48-13.28,4.6,1.9L695.93,136Z"/><path class="cls-31" d="M731.31,138h22.58v5H731.31Z"/><path class="cls-31" d="M727.85,134.63l16-16,3.52,3.52-16,16Z"/><path class="cls-31" d="M730,110.93l1.9-4.61,13.28,5.48-1.9,4.61Z"/><path class="cls-31" d="M730,170.07l13.28-5.48,1.9,4.61-13.29,5.47Z"/><path class="cls-31" d="M749.59,122.69l4.6-1.9,5.48,13.28-4.6,1.9Z"/><path class="cls-31" d="M725.5,146.31H728v22.58H725.5Z"/><path class="cls-32" d="M759.7,148.8a8.3,8.3,0,1,1,8.3-8.3A8.31,8.31,0,0,1,759.7,148.8Z"/><path class="cls-33" d="M749.68,173a8.3,8.3,0,1,1,5.87-2.43A8.25,8.25,0,0,1,749.68,173Z"/><path class="cls-32" d="M749.68,124.62a8.3,8.3,0,1,1,5.87-2.43A8.25,8.25,0,0,1,749.68,124.62Z"/><path class="cls-34" d="M725.5,114.6a8.3,8.3,0,1,1,8.3-8.3A8.31,8.31,0,0,1,725.5,114.6Z"/><path class="cls-35" d="M725.5,183a8.3,8.3,0,1,1,8.3-8.3A8.31,8.31,0,0,1,725.5,183Z"/><path class="cls-35" d="M691.3,148.8a8.3,8.3,0,1,1,8.3-8.3A8.31,8.31,0,0,1,691.3,148.8Z"/><path class="cls-35" d="M701.32,124.62a8.3,8.3,0,1,1,5.87-2.43A8.24,8.24,0,0,1,701.32,124.62Z"/><path class="cls-35" d="M701.32,173a8.3,8.3,0,1,1,5.87-2.43A8.24,8.24,0,0,1,701.32,173Z"/><path class="cls-33" d="M725.5,98v16.6a8.3,8.3,0,0,0,0-16.6Z"/><path class="cls-32" d="M725.5,166.4V183a8.3,8.3,0,0,0,0-16.6Z"/><path class="cls-36" d="M725.5,148.8a8.3,8.3,0,1,1,8.3-8.3A8.31,8.31,0,0,1,725.5,148.8Z"/><path class="cls-37" d="M725.5,132.2v16.6a8.3,8.3,0,0,0,0-16.6Z"/></svg>