<svg id="Layer_1" data-name="Layer 1" xmlns="http://www.w3.org/2000/svg" viewBox="0 0 800 300"><defs><style>.cls-1{fill:#fff;}.cls-2{fill:#f2f2f2;}.cls-3{fill:#3f3d56;}.cls-4{opacity:0.1;isolation:isolate;}.cls-5{fill:#00c853;}.cls-6{fill:#2f2e41;}.cls-7{fill:#fbbebe;}</style></defs><title>Login</title><rect class="cls-1" width="800" height="300"/><path class="cls-2" d="M238.16,260.56c-79.38-6-174-67.55-169.23-130.88S165.44,7.39,244.82,13.43,369.9,137.83,365.08,201.16,317.54,266.6,238.16,260.56Z"/><ellipse class="cls-3" cx="244.82" cy="260.58" rx="165.71" ry="10.15"/><ellipse class="cls-4" cx="244.82" cy="260.42" rx="141.15" ry="6.71"/><ellipse class="cls-3" cx="129.22" cy="286.94" rx="69.49" ry="6.06"/><ellipse class="cls-4" cx="129.22" cy="286.84" rx="59.19" ry="4.01"/><rect class="cls-3" x="123.98" y="66.05" width="246.27" height="193.22"/><path class="cls-2" d="M244.31,92.46H183.56a.74.74,0,0,1,0-1.48h60.76a.74.74,0,1,1,0,1.48Z"/><path class="cls-2" d="M310.82,100.57H215.26a.74.74,0,1,1,0-1.48h95.56a.74.74,0,0,1,0,1.48Z"/><path class="cls-2" d="M244.61,108.68H183.85a.74.74,0,0,1,0-1.48h60.76a.74.74,0,0,1,0,1.48Z"/><path class="cls-2" d="M310.82,108.83H250.06a.74.74,0,0,1,0-1.48h60.76a.74.74,0,0,1,0,1.48Z"/><path class="cls-2" d="M244.75,116.79H184a.74.74,0,0,1,0-1.48h60.75a.74.74,0,1,1,0,1.48Z"/><path class="cls-2" d="M244.9,124.9H184.15a.74.74,0,1,1,0-1.48H244.9a.74.74,0,0,1,0,1.48Z"/><path class="cls-2" d="M272.48,92.6h-17.4a.74.74,0,1,1,0-1.47h17.4a.74.74,0,0,1,0,1.47Z"/><path class="cls-2" d="M272.48,116.79h-17.4a.74.74,0,1,1,0-1.48h17.4a.74.74,0,0,1,0,1.48Z"/><path class="cls-2" d="M272.48,124.75h-17.4a.74.74,0,0,1-.74-.73.72.72,0,0,1,.73-.74h17.41a.74.74,0,1,1,0,1.47Z"/><path class="cls-2" d="M301.67,124.75h-17.4a.74.74,0,0,1,0-1.47h17.4a.74.74,0,0,1,0,1.47Z"/><path class="cls-2" d="M200.81,100.57h-17.4a.74.74,0,0,1,0-1.48h17.4a.74.74,0,1,1,0,1.48Z"/><path class="cls-2" d="M244.38,211.9H183.63a.74.74,0,1,1,0-1.47h60.75a.74.74,0,1,1,0,1.47Z"/><path class="cls-2" d="M244.09,228.12H183.34a.74.74,0,1,1,0-1.47h60.75a.74.74,0,1,1,0,1.47Z"/><path class="cls-2" d="M244.24,236.23H183.48a.74.74,0,0,1,0-1.47h60.76a.74.74,0,0,1,0,1.47Z"/><path class="cls-2" d="M270.19,228.27h-17.4a.74.74,0,1,1,0-1.47h17.4a.74.74,0,1,1,0,1.47Z"/><path class="cls-2" d="M270.19,236.23h-17.4a.74.74,0,1,1,0-1.47h17.4a.74.74,0,1,1,0,1.47Z"/><path class="cls-2" d="M299.39,228.27H282a.74.74,0,1,1,0-1.47h17.4a.74.74,0,1,1,0,1.47Z"/><path class="cls-2" d="M310.89,220H215.33a.74.74,0,0,1,0-1.47h95.56a.74.74,0,1,1,0,1.47Z"/><path class="cls-2" d="M200.88,220h-17.4a.74.74,0,0,1,0-1.47h17.4a.74.74,0,1,1,0,1.47Z"/><path class="cls-2" d="M310.89,244.49H215.33a.74.74,0,0,1,0-1.47h95.56a.74.74,0,1,1,0,1.47Z"/><path class="cls-2" d="M200.88,244.49h-17.4a.74.74,0,0,1,0-1.47h17.4a.74.74,0,1,1,0,1.47Z"/><polygon class="cls-5" points="229.71 144.36 206.12 167.66 229.71 190.96 235.02 185.65 217.18 167.81 235.17 149.82 229.71 144.36"/><polygon class="cls-5" points="264.51 144.36 288.11 167.66 264.51 190.96 259.2 185.65 277.05 167.81 259.06 149.82 264.51 144.36"/><circle class="cls-5" cx="130.53" cy="70.96" r="2.95"/><circle class="cls-5" cx="138.39" cy="70.96" r="2.95"/><circle class="cls-5" cx="146.25" cy="70.96" r="2.95"/><rect class="cls-4" x="123.98" y="75.88" width="246.27" height="0.98"/><path class="cls-2" d="M428.54,211.93c0,20.89-12.42,28.18-27.73,28.18s-27.73-7.29-27.73-28.18,27.73-47.45,27.73-47.45S428.54,191.05,428.54,211.93Z"/><polygon class="cls-3" points="399.8 236.91 400.08 219.44 411.9 197.81 400.13 216.69 400.26 208.84 408.4 193.19 400.29 206.75 400.29 206.75 400.52 192.62 409.24 180.17 400.56 190.4 400.7 164.48 399.8 198.79 399.87 197.38 391 183.8 399.73 200.09 398.9 215.88 398.88 215.46 388.65 201.17 398.85 216.94 398.74 218.91 398.73 218.94 398.73 219.1 396.64 259.15 399.44 259.15 399.77 238.47 409.94 222.74 399.8 236.91"/><path class="cls-6" d="M99.88,259a13.7,13.7,0,0,1-2.67,1.15c-1.67.45-3.44.29-5.12.67A2.1,2.1,0,0,0,90.43,262a2.41,2.41,0,0,0,.18,1.51c1.86,5.44,3,11.22,5.94,16.15a24.53,24.53,0,0,0,4.58,5.57,4.37,4.37,0,0,0,2.34,1.29,2.38,2.38,0,0,0,2.61-2.11,2.42,2.42,0,0,0-.2-1.22c-.27-.59-.76-1-1.08-1.61a6.31,6.31,0,0,1-.59-2.29c-.3-2.33-.58-4.76.23-7a23,23,0,0,1,2.36-4.07,7.14,7.14,0,0,0,1.33-4.44,7.71,7.71,0,0,0-1.2-3c-.55-.93-1.64-3.41-2.74-3.72S100.89,258.46,99.88,259Z"/><path class="cls-6" d="M130.16,277.77a4.87,4.87,0,0,1-.22,1.56c-.35.91-1.21,1.54-1.65,2.41a5.3,5.3,0,0,0,.07,4,4,4,0,0,0,1.28,2.16,4.24,4.24,0,0,0,2,.63c5.91.82,11.91.35,17.87.52a6.08,6.08,0,0,0,3.18-.46,2,2,0,0,0,.89-2.74c-.58-.79-1.72-.78-2.7-.83a11.08,11.08,0,0,1-6.84-2.82,5.07,5.07,0,0,1-1-1.1,7,7,0,0,1-.5-1.16,51.89,51.89,0,0,0-3-6.59,3.56,3.56,0,0,0-1.28-1.53,3.51,3.51,0,0,0-1.39-.3c-1.49-.1-5.33-.6-6.48.55S130.18,276.42,130.16,277.77Z"/><circle class="cls-7" cx="139.3" cy="136.37" r="9.49" transform="translate(-6.6 265.65) rotate(-85.93)"/><path class="cls-7" d="M130.73,144.21a7.12,7.12,0,0,1-2.92,3.74l13.13,2.68a14,14,0,0,1-.19-5.86,3.34,3.34,0,0,0,.08-1.44c-.24-1-1.32-1.41-2.28-1.63a29.92,29.92,0,0,1-6.73-1.9C131.13,141,131.23,142.86,130.73,144.21Z"/><path class="cls-6" d="M127.7,144.4a10.26,10.26,0,0,1,9,.23,20.15,20.15,0,0,1,4.44,3.55c1.26,1.21,2.61,2.61,2.7,4.36a12.75,12.75,0,0,1-.35,2.51,8.41,8.41,0,0,0,4.51,8.67,11.46,11.46,0,0,1,1.27,5.87c.06,7.67-2.36,15.44-.63,22.92.41,1.76,1,3.46,1.39,5.22.45,2.29.43,4.65.66,7a31.14,31.14,0,0,0,1.68,7.37,3.06,3.06,0,0,1-2.83,1.18,8,8,0,0,1-3-1c-4.62-2.36-8.86-5.48-13.65-7.5-3.17-1.33-6.54-2.16-9.62-3.69s-5.93-4-6.87-7.29a17.21,17.21,0,0,1-.46-4.42c-.09-6.26-.18-12.58,1.19-18.69,1.2-5.39,3.51-10.55,4-16,.16-1.78.17-3.7,1.17-5.19C123.65,147.28,126.7,146.73,127.7,144.4Z"/><path class="cls-6" d="M133.9,136.5a2.48,2.48,0,0,1,2.53-.61c.89.22,1.72.68,2.62.85a1.53,1.53,0,0,0,1.23-.17,1.84,1.84,0,0,0,.53-1.17,22.58,22.58,0,0,0,.21-5.69,1.8,1.8,0,0,1,.06-.8c.22-.54.9-.67,1.46-.84a4.36,4.36,0,0,0,3-4.46,1.77,1.77,0,0,0-.54-1.23,2.24,2.24,0,0,0-1.42-.33c-2.55,0-5.1,0-7.66,0a5.58,5.58,0,0,0-2.75.5,14.48,14.48,0,0,0-1.6,1.35c-1.41,1.14-3.33,1.37-5.05,2a4.94,4.94,0,0,0-2.22,1.32,2.34,2.34,0,0,0-.49,2.42,8.61,8.61,0,0,0,.62,1c1,1.63.34,3.74.49,5.65.19,2.38,3.72,6.26,6.12,6.82C134.85,143.93,132.62,138.07,133.9,136.5Z"/><path class="cls-6" d="M128.54,241.15a28.17,28.17,0,0,1,.48,5.25c-.12,2.46-1,4.82-1.17,7.27-.12,1.83.16,3.68-.09,5.5-.17,1.17-.54,2.29-.78,3.44a14.21,14.21,0,0,0,2.28,10.89,1.72,1.72,0,0,0,.67.64,1.76,1.76,0,0,0,.82.11,57,57,0,0,0,8.24-.75.76.76,0,0,0,.53-.23.84.84,0,0,0,.12-.31c.5-2.6-.65-5.21-.95-7.84a24.62,24.62,0,0,1,1-8.37,38.9,38.9,0,0,1,1.14-4c.32-.89.71-1.75,1-2.65a20.44,20.44,0,0,0,.73-4.32q.28-3.47.31-6.94a29.34,29.34,0,0,0-.55-6.55,34.78,34.78,0,0,0-3.12-7.78,4.83,4.83,0,0,0-1.84.88,41.72,41.72,0,0,1-5,2.78c-1.17.54-3.45.92-4.19,2.05s-.26,3.39-.2,4.62C128.06,237,128.25,239.06,128.54,241.15Z"/><path class="cls-4" d="M128.54,241.15a28.17,28.17,0,0,1,.48,5.25c-.12,2.46-1,4.82-1.17,7.27-.12,1.83.16,3.68-.09,5.5-.17,1.17-.54,2.29-.78,3.44a14.21,14.21,0,0,0,2.28,10.89,1.72,1.72,0,0,0,.67.64,1.76,1.76,0,0,0,.82.11,57,57,0,0,0,8.24-.75.76.76,0,0,0,.53-.23.84.84,0,0,0,.12-.31c.5-2.6-.65-5.21-.95-7.84a24.62,24.62,0,0,1,1-8.37,38.9,38.9,0,0,1,1.14-4c.32-.89.71-1.75,1-2.65a20.44,20.44,0,0,0,.73-4.32q.28-3.47.31-6.94a29.34,29.34,0,0,0-.55-6.55,34.78,34.78,0,0,0-3.12-7.78,4.83,4.83,0,0,0-1.84.88,41.72,41.72,0,0,1-5,2.78c-1.17.54-3.45.92-4.19,2.05s-.26,3.39-.2,4.62C128.06,237,128.25,239.06,128.54,241.15Z"/><path class="cls-6" d="M115.72,203.93c-1.27,3.39.59,7.06,2.2,10.3,4,8,6.71,16.51,9.45,25a3,3,0,0,1,.18,2,2.46,2.46,0,0,1-.92,1.1c-1.89,1.43-4.29,1.94-6.54,2.69a29.56,29.56,0,0,0-6.21,2.91c-1.63,1-3.15,2.17-4.68,3.34l-4.85,3.7a3.37,3.37,0,0,0-.81.79,3.21,3.21,0,0,0,0,2.53,43.67,43.67,0,0,0,2.37,6.48,2.32,2.32,0,0,0,.87,1.13c.75.41,1.68-.13,2.26-.77s1.08-1.43,1.89-1.7,1.71.06,2.56-.06c1.38-.2,2.29-1.46,3.28-2.43,4-4,10.81-3.69,15.26-7.2a19.79,19.79,0,0,1,2-1.6c.75-.44,1.6-.68,2.38-1.08,2.38-1.2,3.87-3.67,4.67-6.21s1-5.21,1.61-7.81a32.86,32.86,0,0,0,.82-4,22.17,22.17,0,0,0-.08-3.82l-1.61-19.89c-.13-1.61-.26-3.23-.52-4.84-4.77.17-9.54.36-14.32.42C123.19,204.87,119.32,205.13,115.72,203.93Z"/><path class="cls-6" d="M114,208.58c.65,1,2.22,1,3.31.45s1.93-1.53,3-2.1a9.74,9.74,0,0,1,4.83-.68,31.05,31.05,0,0,1,7.76.87c2.6.73,5.12,2.16,7.81,1.87a1.63,1.63,0,0,0,1.23-.57,1.78,1.78,0,0,0,.2-.93l.09-2.35A2.08,2.08,0,0,0,142,204a2,2,0,0,0-.89-.69c-3.82-1.84-8.17-2.19-12.41-2.33q-3.24-.12-6.47-.1c-1.83,0-4-.25-5.81.24C114.05,201.74,112.75,206.63,114,208.58Z"/><path class="cls-5" d="M137.94,147.18c-5-.05-9.54-3.35-14.54-3.43a3.73,3.73,0,0,0-1.77.31,6.7,6.7,0,0,0-1.68,1.6c-1.48,1.6-3.62,2.46-5.14,4a6,6,0,0,0-1.66,5.62,4.17,4.17,0,0,0,4.68,3,12.06,12.06,0,0,1,4.69-6.38,24.22,24.22,0,0,1,3.67-1.93c2.25-1,4.77-2.05,7.11-1.29a10,10,0,0,1,2.43,1.32l3.91,2.63A26.5,26.5,0,0,0,137.94,147.18Z"/><path class="cls-5" d="M117.25,156.56c-.66.83.29,2,.15,3.08-.1.7-.68,1.24-.92,1.9a11.19,11.19,0,0,0-.21,2.18,9.21,9.21,0,0,1-.41,1.54,26.68,26.68,0,0,0-.88,4.6l-.88,6.54a26.88,26.88,0,0,0-.28,3,8.78,8.78,0,0,1-.14,2.23,17.43,17.43,0,0,1-.92,2,2.35,2.35,0,0,0,0,2.13,3.73,3.73,0,0,0-.78,4.67,2.52,2.52,0,0,1,.4.74,1.87,1.87,0,0,1-.18,1.09l-.88,2.36c-.23.61-.3,1.53.33,1.66a5.79,5.79,0,0,0-1.2,1.89,2.26,2.26,0,0,0,.32,2.13,2.82,2.82,0,0,1,.56.68,1.83,1.83,0,0,1-.07,1.06,3.89,3.89,0,0,0,.49,3.05,2.74,2.74,0,0,0,2.75,1.19c1.77-.4,3.37-1,5.15-.71a92.3,92.3,0,0,1,11.43,2.61c4.26,1.36,8.37,3.35,12.82,3.76a1.2,1.2,0,0,0,.85-.13,1.26,1.26,0,0,0,.4-.81q.69-3.23,1.37-6.44a65.29,65.29,0,0,0,1.27-7.22c.15-1.56.2-3.14.24-4.71l.36-12.52a12.56,12.56,0,0,0-.72-5.44l-2-6.5c-1.16-3.71-3.83-7-4.78-10.77-.6-2.39-1-4.95-2.65-6.81-2.3-2.65-6.27-3.06-9.75-2.61a11.74,11.74,0,0,0-4.51,1.38,14.65,14.65,0,0,0-3.85,3.88C119.13,154.42,118.19,155.38,117.25,156.56Z"/><path class="cls-7" d="M125.37,193.39c.29,1.23.89,2.37,1.26,3.58.61,2,.56,4.23,1.18,6.26.26.86.63,1.67.82,2.55a10.51,10.51,0,0,1-1,6.06,23.8,23.8,0,0,0-2,5.89,4.52,4.52,0,0,0,1.2,4c1.16,1,2.85.91,4.36.78a4.75,4.75,0,0,0,1.59-.33c1.16-.55,1.65-1.92,1.92-3.17.9-4.2.65-8.55.38-12.84L134.41,195a25.82,25.82,0,0,0-.94-6.43c-.24-.76-.66-2.28-1.35-2.76s-2.63-.5-3.47-.54C124.68,185.08,124.73,190.61,125.37,193.39Z"/><path class="cls-6" d="M129.76,152a2.74,2.74,0,0,0-2.61.23,8,8,0,0,0-2,1.9c-1.74,2.14-3.6,4.59-3.34,7.33a19.8,19.8,0,0,0,.76,3c1.17,4.38-.12,9,0,13.54a41.78,41.78,0,0,0,1.22,7.76c.12.52.3,1.13.81,1.3a1.76,1.76,0,0,0,1.16-.18,9.29,9.29,0,0,1,8.5,1.07c.94-.5.59-2.08.38-3.12-.62-3.1.22-6.3,1.25-9.28s2.27-6,2.44-9.13c.19-3.57-1-7.06-2.16-10.45a4.59,4.59,0,0,0-1.13-2,4.54,4.54,0,0,0-1.7-.78A19.2,19.2,0,0,1,129.76,152Z"/><path class="cls-5" d="M724.25-33.54S620-59.77,498.92-13.87,447.42,176.3,504.07,196s133.91-18,181.55,19.68,132.63,159,224,24.59S833.7-7.31,724.25-33.54Z"/></svg>