<svg id="Layer_1" data-name="Layer 1" xmlns="http://www.w3.org/2000/svg" viewBox="0 0 1022 588"><defs><style>.cls-1{fill:#fff;}</style></defs><title>Logo-White</title><path class="cls-1" d="M284.38,575.82l20-1.5a3.54,3.54,0,0,0,3.54-3.53v-1.94a3.54,3.54,0,0,0-3.54-3.53H259.41a3.53,3.53,0,0,1-3.53-3.53v-.94a3.53,3.53,0,0,1,3.53-3.53h34.93a3.54,3.54,0,0,0,3.54-3.53v-.94a3.54,3.54,0,0,0-3.54-3.53H263.57a3.64,3.64,0,0,1-3.64-2.87,3.51,3.51,0,0,1,3.45-4.13h21a3.54,3.54,0,0,0,3.54-3.53v-.94a3.54,3.54,0,0,0-3.54-3.53H268.41a3.53,3.53,0,0,1-3.53-3.53v-1.94a3.53,3.53,0,0,1,3.53-3.53h38.93a3.54,3.54,0,0,0,3.54-3.53v-1.94a3.54,3.54,0,0,0-3.54-3.53H279.41a3.53,3.53,0,0,1-3.53-3.53v-.94a3.53,3.53,0,0,1,3.53-3.53h13.93a3.54,3.54,0,0,0,3.54-3.53v-.94a3.54,3.54,0,0,0-3.54-3.53H269.41a3.53,3.53,0,0,1-3.53-3.53v-.94a3.53,3.53,0,0,1,3.53-3.53h10.93a3.54,3.54,0,0,0,3.54-3.53v-.94a3.54,3.54,0,0,0-3.54-3.53H260.41a3.53,3.53,0,0,1-3.53-3.53v-2.94a3.53,3.53,0,0,1,3.53-3.53H275.5a1.56,1.56,0,0,0,.34-3.08,175,175,0,0,1,36.5-346.17,0,0,0,0,0,0,0V20.1a0,0,0,0,0,0,0c-154.62,0-280,125.37-280,280,0,144,106.16,259.12,246,274.75Z"/><circle class="cls-1" cx="311.5" cy="72.44" r="53"/><circle class="cls-1" cx="312.63" cy="300.07" r="70"/><path class="cls-1" d="M478.71,233.58v92.95c0,6.83.16,14.61.64,19.86H466.8L466.16,333h-.31c-4.29,8.58-13.67,15.09-26.22,15.09-18.59,0-32.89-15.72-32.89-39.08-.16-25.58,15.73-41.31,34.48-41.31,11.76,0,19.7,5.56,23.2,11.76h.31V233.58Zm-14,67.21a25,25,0,0,0-.63-5.88,20.56,20.56,0,0,0-20.18-16.2c-14.46,0-23,12.71-23,29.71,0,15.56,7.63,28.43,22.72,28.43,9.38,0,18-6.19,20.5-16.68a24.62,24.62,0,0,0,.63-6Z"/><path class="cls-1" d="M509.69,310.48c.32,18.91,12.4,26.69,26.38,26.69,10,0,16-1.75,21.29-4l2.38,10c-4.93,2.22-13.35,4.76-25.58,4.76-23.67,0-37.81-15.56-37.81-38.76s13.66-41.47,36.06-41.47c25.1,0,31.78,22.09,31.78,36.23a52.29,52.29,0,0,1-.48,6.51Zm41-10c.16-8.9-3.65-22.72-19.38-22.72-14.14,0-20.34,13-21.45,22.72Z"/><path class="cls-1" d="M624.08,346.39l-1.11-9.7h-.48c-4.29,6-12.55,11.44-23.51,11.44-15.57,0-23.51-11-23.51-22.08,0-18.59,16.52-28.76,46.23-28.6v-1.59c0-6.35-1.75-17.79-17.48-17.79a38.3,38.3,0,0,0-20,5.72L581,274.57c6.35-4.13,15.57-6.83,25.26-6.83,23.51,0,29.23,16.05,29.23,31.46V328a108.69,108.69,0,0,0,1.27,18.43ZM622,307.14c-15.26-.31-32.57,2.39-32.57,17.32,0,9.06,6,13.35,13.18,13.35a19.13,19.13,0,0,0,18.59-12.87,14.51,14.51,0,0,0,.8-4.45Z"/><path class="cls-1" d="M674.28,247.41v22.08h20v10.64h-20V321.6c0,9.53,2.71,14.94,10.49,14.94a30.85,30.85,0,0,0,8.1-1l.64,10.49a34.28,34.28,0,0,1-12.39,1.9c-6.52,0-11.76-2.06-15.1-5.87-4-4.13-5.4-11-5.4-20V280.13H648.71V269.49h11.91V251.06Z"/><path class="cls-1" d="M710,233.58h14v48h.32a25.93,25.93,0,0,1,10-9.86,28.79,28.79,0,0,1,14.3-4c10.32,0,26.85,6.36,26.85,32.89v45.76h-14V302.22c0-12.39-4.6-22.88-17.79-22.88-9.05,0-16.2,6.36-18.75,14a17,17,0,0,0-1,6.67v46.4H710Z"/><path class="cls-1" d="M867.79,307.3c0,28.44-19.7,40.83-38.29,40.83-20.81,0-36.86-15.25-36.86-39.56,0-25.73,16.84-40.83,38.13-40.83C852.86,267.74,867.79,283.79,867.79,307.3Zm-61,.8c0,16.84,9.69,29.55,23.36,29.55,13.34,0,23.35-12.55,23.35-29.87,0-13-6.51-29.55-23-29.55S806.78,293.48,806.78,308.1Z"/><path class="cls-1" d="M885.42,290.3c0-7.94-.15-14.45-.63-20.81h12.39L898,282.2h.32c3.82-7.31,12.71-14.46,25.42-14.46,10.65,0,27.17,6.36,27.17,32.73v45.92h-14V302.06c0-12.39-4.61-22.72-17.79-22.72-9.22,0-16.37,6.51-18.75,14.3a20,20,0,0,0-1,6.51v46.24h-14Z"/></svg>