<svg id="Layer_1" data-name="Layer 1" xmlns="http://www.w3.org/2000/svg" viewBox="0 0 800 300"><defs><style>.cls-1{fill:#fff;}.cls-2{fill:#00c853;}.cls-3{fill:#2f2e41;}.cls-4{fill:#d0cde1;}.cls-5{fill:#3f3d56;}.cls-6{opacity:0.1;}.cls-6,.cls-8{isolation:isolate;}.cls-7{fill:#ffb8b8;}.cls-8{opacity:0.2;}.cls-9{fill:#f2f2f2;}</style></defs><title>Signup</title><rect class="cls-1" width="800" height="300"/><path class="cls-2" d="M-92.7,120.37S-96.15,5-25.32-113.74s197.39-16.73,204.58,47S133,71.13,159.8,128.92,287.36,300.5,136.08,370.44-90.34,241.17-92.7,120.37Z"/><path class="cls-3" d="M589.3,65c10.66,15.55,8.3,35.7,8.3,35.7S578,95.61,567.29,80.06,559,44.35,559,44.35,578.64,49.42,589.3,65Z"/><path class="cls-2" d="M581.63,68c1.24,18.81,15.56,33.18,15.56,33.18s12.3-16.13,11-34.95S592.67,33,592.67,33,580.38,49.13,581.63,68Z"/><path class="cls-4" d="M459.23,13.39,604,86.16a6.82,6.82,0,0,1,3.75,6.57l-8.41,124.56a3.38,3.38,0,0,1-3.61,3.15,3.44,3.44,0,0,1-1.3-.35l-148-75.55L454,16.42a3.64,3.64,0,0,1,5.27-3Z"/><path class="cls-5" d="M460.9,15.93l141.18,71a6.66,6.66,0,0,1,3.66,6.41l-8.2,121.5a3.31,3.31,0,0,1-4.8,2.73l-144.4-73.7,7.42-125a3.54,3.54,0,0,1,5.14-3Z"/><path class="cls-1" d="M467.08,25.35l128,64.35a6,6,0,0,1,3.32,5.81l-7.44,110.13a3,3,0,0,1-3.19,2.79,2.9,2.9,0,0,1-1.15-.31l-130.89-66.8L462.43,28a3.22,3.22,0,0,1,4.65-2.69Z"/><path class="cls-4" d="M335,205.83l144.92,73a9.64,9.64,0,0,0,8.69,0l107.21-54.42c1.26-1.26,1.08-3.12.68-4.52a9.72,9.72,0,0,0-.79-2l-14.61-7.69L458.3,148.94,451,145a13.57,13.57,0,0,0-12.62,0L335,198.68a4,4,0,0,0,0,7.15Z"/><path class="cls-6" d="M335,205.83l144.92,73a9.64,9.64,0,0,0,8.69,0l107.21-54.42c1.26-1.26,1.08-3.12.68-4.52L489.64,275.42a9.32,9.32,0,0,1-8.45.07L332.87,201.6A4,4,0,0,0,335,205.83Z"/><path class="cls-6" d="M472.59,227.7,425.65,204a6.6,6.6,0,0,0-6.08.07l-27.22,14.54a2,2,0,0,0-.8,2.64,1.9,1.9,0,0,0,.84.82l47.85,24.13a5.42,5.42,0,0,0,5.1-.12l27.33-15.4a1.66,1.66,0,0,0,.64-2.28A1.69,1.69,0,0,0,472.59,227.7Z"/><path class="cls-6" d="M583.12,223.73l-50.51,26.83a4.1,4.1,0,0,1-3.78,0L386.14,178.44a2.43,2.43,0,0,1,0-4.34l49.32-24.41a5.34,5.34,0,0,1,4.77,0l142.85,72a1.16,1.16,0,0,1,.51,1.56A1.18,1.18,0,0,1,583.12,223.73Z"/><rect class="cls-2" x="525.35" y="75.83" width="0.57" height="51.91" transform="translate(199.52 526.41) rotate(-63.43)"/><rect class="cls-2" x="525.35" y="82.78" width="0.57" height="52.17" transform="translate(189.34 527.25) rotate(-62.91)"/><rect class="cls-2" x="523.94" y="101.85" width="0.57" height="29.88" transform="translate(181.7 530.46) rotate(-62.93)"/><path class="cls-5" d="M365.67,138.09s-11.33-4.93-16.64.28S363.26,141.86,365.67,138.09Z"/><path class="cls-3" d="M346.11,114.69c3.81-6.43,11.34-6.73,11.34-6.73s7.33-.94,12,8.86c4.39,9.12,10.44,17.94,1,20.07l-1.71-5.32-1.05,5.72a36.49,36.49,0,0,1-4.05.07c-10.14-.33-19.79.09-19.48-3.54C344.58,129,342.45,120.88,346.11,114.69Z"/><path class="cls-7" d="M340.79,231.25s4.8,8.92,7.89,8.92,2.75,5.83,2.06,7.2-2.4,4.46.34,8.92a5.48,5.48,0,0,1,.16,5,4.34,4.34,0,0,1-8.4-1.71c0-.06,0-.11,0-.17.34-5.49-2.4-14.07-5.15-16.12s-5.14-7.55-5.14-7.55Z"/><path class="cls-7" d="M373.73,229.19s-4.8,8.92-7.89,8.92-2.75,5.83-2.06,7.2,2.4,4.46-.34,8.93a5.45,5.45,0,0,0-.16,5,4.34,4.34,0,0,0,8.4-1.71c0-.06,0-.11,0-.17-.34-5.49,2.4-14.06,5.15-16.12s5.14-7.55,5.14-7.55Z"/><path class="cls-3" d="M370,185.27l2.05,4.46s30.2,10,27.45,21.62-16.12,29.85-18.18,29.16-13-2.74-13.38-8.58,7.89-16.12,7.89-16.12l-11.32-10.3L348,205.17l-14.06,10.64s14.75,13,8.23,18.18-16.12,8.58-17.5,6.52-16.81-32.6-14.41-35.34,26.77-13,26.77-13l6.52-9.26,25.39-1.38Z"/><path class="cls-7" d="M363.78,128.65s-1.72,11.33,1.71,12.7-6.86,7.21-6.86,7.21H352.8l-3.77-7.9s3.43-6.17,1.37-12S363.78,128.65,363.78,128.65Z"/><path class="cls-6" d="M363.78,128.65s-1.72,11.33,1.71,12.7-6.86,7.21-6.86,7.21H352.8l-3.77-7.9s3.43-6.17,1.37-12S363.78,128.65,363.78,128.65Z"/><path class="cls-4" d="M366.18,138.26s-3.77,4.12-4.46,4.81-3.77,4.46-10.29-1-7.21,1-7.21,1v41.17s5.49-2.4,9.95,0,13.73-.69,13.73-.69L369.61,141Z"/><path class="cls-5" d="M363.66,138.26s3.21-1.37,5.95,0,12.35,8.24,11.67,11.32-9.61,24.71-3.43,35,7.2,13,7.2,13L370,189.73s-11.67-7.21-10.64-11.67S363.66,138.26,363.66,138.26Z"/><path class="cls-5" d="M350.05,138.26s-7.2.69-7.54,1.37-10.81,3.61-10.13,6.7,10.13,30.7,6,35.85-11,12.35-8.58,13,6.52-1,10.64,0,13.72-7.55,12.69-16.81S353.13,140.66,350.05,138.26Z"/><path class="cls-7" d="M367.21,203.8v3.43s1.72,7.89-3.77,7.55-2.06-9.61-2.06-9.61l.34-3.09Z"/><path class="cls-7" d="M351.77,204.14s3.77,7.89,0,8.58-6.52-4.46-6.52-5.83S351.77,204.14,351.77,204.14Z"/><ellipse class="cls-7" cx="346.8" cy="124.02" rx="0.69" ry="1.37"/><ellipse class="cls-7" cx="367.04" cy="124.02" rx="0.69" ry="1.37"/><path class="cls-5" d="M340.79,142.72s-8.58,0-8.23,3.43,11.66,62.45,11.66,62.45,4.81-4.46,8.92-3.43Z"/><path class="cls-5" d="M374.07,143.75s8.58,1.72,8.58,6.86-12.35,54.56-14.07,54.56-8.23-1-8.23-2.75S374.07,143.75,374.07,143.75Z"/><path class="cls-8" d="M372.19,153.87l-7.72,30.2S368.07,157.65,372.19,153.87Z"/><path class="cls-8" d="M342.16,149.63,350,189.11S347.47,151.91,342.16,149.63Z"/><circle class="cls-7" cx="356.92" cy="124.19" r="9.95"/><polygon class="cls-3" points="347.8 114.07 355.24 110.18 365.5 111.77 367.63 121.16 362.34 120.95 360.86 117.5 360.86 120.89 358.42 120.8 357 115.31 356.12 121.16 347.44 120.98 347.8 114.07"/><polyline class="cls-9" points="459.32 56.3 455.22 66.06 489.84 84.23 501.5 50.1"/><polygon class="cls-2" points="489.04 78.25 504.34 42.26 469.19 24.96 454.43 60.07 489.04 78.25"/><rect class="cls-1" x="481.25" y="30.83" width="0.57" height="29.88" transform="translate(221.67 453.75) rotate(-62.93)"/><rect class="cls-1" x="479.25" y="35.62" width="0.57" height="29.88" transform="translate(216.32 454.58) rotate(-62.93)"/></svg>