<?xml version="1.0" encoding="UTF-8" standalone="no"?>
<!DOCTYPE svg PUBLIC "-//W3C//DTD SVG 1.1//EN"
 "http://www.w3.org/Graphics/SVG/1.1/DTD/svg11.dtd">
<!-- Generated by graphviz version 2.40.1 (20161225.0304)
 -->
<!-- Title: dependencies Pages: 1 -->
<svg width="2966pt" height="290pt"
 viewBox="0.00 0.00 2966.00 290.00" xmlns="http://www.w3.org/2000/svg" xmlns:xlink="http://www.w3.org/1999/xlink">
<g id="graph0" class="graph" transform="scale(1 1) rotate(0) translate(4 286)">
<title>dependencies</title>
<polygon fill="#ffffff" stroke="transparent" points="-4,4 -4,-286 2962,-286 2962,4 -4,4"/>
<text text-anchor="start" x="1458.0091" y="-42.4" font-family="sans-serif" font-weight="bold" font-size="14.00" fill="#000000">Legend</text>
<polygon fill="#ffffb3" stroke="transparent" points="1245,-10 1245,-30 1265,-30 1265,-10 1245,-10"/>
<text text-anchor="start" x="1268.629" y="-15.4" font-family="sans-serif" font-size="14.00" fill="#000000"> &#160;Declarations</text>
<polygon fill="#8dd3c7" stroke="transparent" points="1358,-10 1358,-30 1378,-30 1378,-10 1358,-10"/>
<text text-anchor="start" x="1381.7251" y="-15.4" font-family="sans-serif" font-size="14.00" fill="#000000"> &#160;Module</text>
<polygon fill="#80b1d3" stroke="transparent" points="1444,-10 1444,-30 1464,-30 1464,-10 1444,-10"/>
<text text-anchor="start" x="1467.7812" y="-15.4" font-family="sans-serif" font-size="14.00" fill="#000000"> &#160;Bootstrap</text>
<polygon fill="#fdb462" stroke="transparent" points="1541,-10 1541,-30 1561,-30 1561,-10 1541,-10"/>
<text text-anchor="start" x="1564.6732" y="-15.4" font-family="sans-serif" font-size="14.00" fill="#000000"> &#160;Providers</text>
<polygon fill="#fb8072" stroke="transparent" points="1637,-10 1637,-30 1657,-30 1657,-10 1637,-10"/>
<text text-anchor="start" x="1660.7258" y="-15.4" font-family="sans-serif" font-size="14.00" fill="#000000"> &#160;Exports</text>
<g id="clust1" class="cluster">
<title>cluster_AppModule</title>
<polygon fill="none" stroke="#000000" stroke-dasharray="1,5" points="8,-70 8,-274 440,-274 440,-70 8,-70"/>
</g>
<g id="clust2" class="cluster">
<title>cluster_AppModule_declarations</title>
<polygon fill="none" stroke="#000000" points="168,-78 168,-130 432,-130 432,-78 168,-78"/>
</g>
<g id="clust5" class="cluster">
<title>cluster_AppModule_imports</title>
<polygon fill="none" stroke="#000000" points="16,-78 16,-130 160,-130 160,-78 16,-78"/>
</g>
<g id="clust7" class="cluster">
<title>cluster_AppModule_bootstrap</title>
<polygon fill="none" stroke="#000000" points="176,-214 176,-266 300,-266 300,-214 176,-214"/>
</g>
<g id="clust15" class="cluster">
<title>cluster_CreateNewChallengeModule</title>
<polygon fill="none" stroke="#000000" stroke-dasharray="1,5" points="448,-70 448,-198 1232,-198 1232,-70 448,-70"/>
</g>
<g id="clust16" class="cluster">
<title>cluster_CreateNewChallengeModule_declarations</title>
<polygon fill="none" stroke="#000000" points="704,-78 704,-130 1224,-130 1224,-78 704,-78"/>
</g>
<g id="clust20" class="cluster">
<title>cluster_CreateNewChallengeModule_imports</title>
<polygon fill="none" stroke="#000000" points="456,-78 456,-130 696,-130 696,-78 456,-78"/>
</g>
<g id="clust30" class="cluster">
<title>cluster_ExploreModule</title>
<polygon fill="none" stroke="#000000" stroke-dasharray="1,5" points="1240,-70 1240,-198 1707,-198 1707,-70 1240,-70"/>
</g>
<g id="clust31" class="cluster">
<title>cluster_ExploreModule_declarations</title>
<polygon fill="none" stroke="#000000" points="1248,-78 1248,-130 1410,-130 1410,-78 1248,-78"/>
</g>
<g id="clust33" class="cluster">
<title>cluster_ExploreModule_imports</title>
<polygon fill="none" stroke="#000000" points="1418,-78 1418,-130 1699,-130 1699,-78 1418,-78"/>
</g>
<g id="clust43" class="cluster">
<title>cluster_LoginModule</title>
<polygon fill="none" stroke="#000000" stroke-dasharray="1,5" points="2103,-70 2103,-198 2411,-198 2411,-70 2103,-70"/>
</g>
<g id="clust44" class="cluster">
<title>cluster_LoginModule_declarations</title>
<polygon fill="none" stroke="#000000" points="2273,-78 2273,-130 2403,-130 2403,-78 2273,-78"/>
</g>
<g id="clust46" class="cluster">
<title>cluster_LoginModule_imports</title>
<polygon fill="none" stroke="#000000" points="2111,-78 2111,-130 2265,-130 2265,-78 2111,-78"/>
</g>
<g id="clust56" class="cluster">
<title>cluster_SharedModule</title>
<polygon fill="none" stroke="#000000" stroke-dasharray="1,5" points="1715,-138 1715,-206 2095,-206 2095,-138 1715,-138"/>
</g>
<g id="clust57" class="cluster">
<title>cluster_SharedModule_declarations</title>
<polygon fill="none" stroke="#000000" points="1911,-146 1911,-198 2087,-198 2087,-146 1911,-146"/>
</g>
<g id="clust60" class="cluster">
<title>cluster_SharedModule_exports</title>
<polygon fill="none" stroke="#000000" points="1723,-146 1723,-198 1903,-198 1903,-146 1723,-146"/>
</g>
<g id="clust63" class="cluster">
<title>cluster_WorkspaceModule</title>
<polygon fill="none" stroke="#000000" stroke-dasharray="1,5" points="2419,-70 2419,-198 2950,-198 2950,-70 2419,-70"/>
</g>
<g id="clust64" class="cluster">
<title>cluster_WorkspaceModule_declarations</title>
<polygon fill="none" stroke="#000000" points="2619,-78 2619,-130 2942,-130 2942,-78 2619,-78"/>
</g>
<g id="clust67" class="cluster">
<title>cluster_WorkspaceModule_imports</title>
<polygon fill="none" stroke="#000000" points="2427,-78 2427,-130 2611,-130 2611,-78 2427,-78"/>
</g>
<!-- AppComponent -->
<g id="node1" class="node">
<title>AppComponent</title>
<polygon fill="#ffffb3" stroke="#000000" points="423.9399,-122 318.0601,-122 318.0601,-86 423.9399,-86 423.9399,-122"/>
<text text-anchor="middle" x="371" y="-99.8" font-family="Times,serif" font-size="14.00" fill="#000000">AppComponent</text>
</g>
<!-- AppModule -->
<g id="node3" class="node">
<title>AppModule</title>
<polygon fill="#8dd3c7" stroke="#000000" points="279.6571,-190 276.6571,-194 255.6571,-194 252.6571,-190 196.3429,-190 196.3429,-154 279.6571,-154 279.6571,-190"/>
<text text-anchor="middle" x="238" y="-167.8" font-family="Times,serif" font-size="14.00" fill="#000000">AppModule</text>
</g>
<!-- AppComponent&#45;&gt;AppModule -->
<g id="edge1" class="edge">
<title>AppComponent&#45;&gt;AppModule</title>
<path fill="none" stroke="#000000" d="M371,-122.2921C371,-144.2057 371,-178 371,-178 371,-178 289.7171,-178 289.7171,-178"/>
<polygon fill="#000000" stroke="#000000" points="289.7172,-174.5001 279.7171,-178 289.7171,-181.5001 289.7172,-174.5001"/>
</g>
<!-- NavBarComponent -->
<g id="node2" class="node">
<title>NavBarComponent</title>
<polygon fill="#ffffb3" stroke="#000000" points="300.3655,-122 175.6345,-122 175.6345,-86 300.3655,-86 300.3655,-122"/>
<text text-anchor="middle" x="238" y="-99.8" font-family="Times,serif" font-size="14.00" fill="#000000">NavBarComponent</text>
</g>
<!-- NavBarComponent&#45;&gt;AppModule -->
<g id="edge2" class="edge">
<title>NavBarComponent&#45;&gt;AppModule</title>
<path fill="none" stroke="#000000" d="M238,-122.2228C238,-122.2228 238,-143.7269 238,-143.7269"/>
<polygon fill="#000000" stroke="#000000" points="234.5001,-143.7269 238,-153.7269 241.5001,-143.727 234.5001,-143.7269"/>
</g>
<!-- AppComponent  -->
<g id="node5" class="node">
<title>AppComponent </title>
<polygon fill="#80b1d3" stroke="#000000" points="292.439,-258 183.561,-258 183.561,-222 292.439,-222 292.439,-258"/>
<text text-anchor="middle" x="238" y="-235.8" font-family="Times,serif" font-size="14.00" fill="#000000">AppComponent </text>
</g>
<!-- AppModule&#45;&gt;AppComponent  -->
<g id="edge4" class="edge">
<title>AppModule&#45;&gt;AppComponent </title>
<path fill="none" stroke="#000000" stroke-dasharray="1,5" d="M238,-190.2228C238,-190.2228 238,-211.7269 238,-211.7269"/>
<polygon fill="#000000" stroke="#000000" points="234.5001,-211.7269 238,-221.7269 241.5001,-211.727 234.5001,-211.7269"/>
</g>
<!-- AppRoutingModule -->
<g id="node4" class="node">
<title>AppRoutingModule</title>
<polygon fill="#8dd3c7" stroke="#000000" points="152.2744,-122 149.2744,-126 128.2744,-126 125.2744,-122 23.7256,-122 23.7256,-86 152.2744,-86 152.2744,-122"/>
<text text-anchor="middle" x="88" y="-99.8" font-family="Times,serif" font-size="14.00" fill="#000000">AppRoutingModule</text>
</g>
<!-- AppRoutingModule&#45;&gt;AppModule -->
<g id="edge3" class="edge">
<title>AppRoutingModule&#45;&gt;AppModule</title>
<path fill="none" stroke="#000000" d="M88,-122.2228C88,-142.3652 88,-172 88,-172 88,-172 186.2166,-172 186.2166,-172"/>
<polygon fill="#000000" stroke="#000000" points="186.2167,-175.5001 196.2166,-172 186.2166,-168.5001 186.2167,-175.5001"/>
</g>
<!-- CreateFormComponent -->
<g id="node6" class="node">
<title>CreateFormComponent</title>
<polygon fill="#ffffb3" stroke="#000000" points="1216.1979,-122 1067.8021,-122 1067.8021,-86 1216.1979,-86 1216.1979,-122"/>
<text text-anchor="middle" x="1142" y="-99.8" font-family="Times,serif" font-size="14.00" fill="#000000">CreateFormComponent</text>
</g>
<!-- CreateNewChallengeModule -->
<g id="node9" class="node">
<title>CreateNewChallengeModule</title>
<polygon fill="#8dd3c7" stroke="#000000" points="973.771,-190 970.771,-194 949.771,-194 946.771,-190 794.229,-190 794.229,-154 973.771,-154 973.771,-190"/>
<text text-anchor="middle" x="884" y="-167.8" font-family="Times,serif" font-size="14.00" fill="#000000">CreateNewChallengeModule</text>
</g>
<!-- CreateFormComponent&#45;&gt;CreateNewChallengeModule -->
<g id="edge5" class="edge">
<title>CreateFormComponent&#45;&gt;CreateNewChallengeModule</title>
<path fill="none" stroke="#000000" d="M1142,-122.2667C1142,-140.5552 1142,-166 1142,-166 1142,-166 983.8737,-166 983.8737,-166"/>
<polygon fill="#000000" stroke="#000000" points="983.8737,-162.5001 973.8737,-166 983.8737,-169.5001 983.8737,-162.5001"/>
</g>
<!-- ModifyFormComponent -->
<g id="node7" class="node">
<title>ModifyFormComponent</title>
<polygon fill="#ffffb3" stroke="#000000" points="1049.6624,-122 896.3376,-122 896.3376,-86 1049.6624,-86 1049.6624,-122"/>
<text text-anchor="middle" x="973" y="-99.8" font-family="Times,serif" font-size="14.00" fill="#000000">ModifyFormComponent</text>
</g>
<!-- ModifyFormComponent&#45;&gt;CreateNewChallengeModule -->
<g id="edge6" class="edge">
<title>ModifyFormComponent&#45;&gt;CreateNewChallengeModule</title>
<path fill="none" stroke="#000000" d="M934.9022,-122.2228C934.9022,-122.2228 934.9022,-143.7269 934.9022,-143.7269"/>
<polygon fill="#000000" stroke="#000000" points="931.4023,-143.7269 934.9022,-153.7269 938.4023,-143.727 931.4023,-143.7269"/>
</g>
<!-- TestcasesTableComponent -->
<g id="node8" class="node">
<title>TestcasesTableComponent</title>
<polygon fill="#ffffb3" stroke="#000000" points="878.3403,-122 711.6597,-122 711.6597,-86 878.3403,-86 878.3403,-122"/>
<text text-anchor="middle" x="795" y="-99.8" font-family="Times,serif" font-size="14.00" fill="#000000">TestcasesTableComponent</text>
</g>
<!-- TestcasesTableComponent&#45;&gt;CreateNewChallengeModule -->
<g id="edge7" class="edge">
<title>TestcasesTableComponent&#45;&gt;CreateNewChallengeModule</title>
<path fill="none" stroke="#000000" d="M836.3924,-122.2228C836.3924,-122.2228 836.3924,-143.7269 836.3924,-143.7269"/>
<polygon fill="#000000" stroke="#000000" points="832.8924,-143.7269 836.3924,-153.7269 839.8924,-143.727 832.8924,-143.7269"/>
</g>
<!-- CreateNewChallengeRoutingModule -->
<g id="node10" class="node">
<title>CreateNewChallengeRoutingModule</title>
<polygon fill="#8dd3c7" stroke="#000000" points="688.3889,-122 685.3889,-126 664.3889,-126 661.3889,-122 463.6111,-122 463.6111,-86 688.3889,-86 688.3889,-122"/>
<text text-anchor="middle" x="576" y="-99.8" font-family="Times,serif" font-size="14.00" fill="#000000">CreateNewChallengeRoutingModule</text>
</g>
<!-- CreateNewChallengeRoutingModule&#45;&gt;CreateNewChallengeModule -->
<g id="edge8" class="edge">
<title>CreateNewChallengeRoutingModule&#45;&gt;CreateNewChallengeModule</title>
<path fill="none" stroke="#000000" d="M576,-122.2667C576,-140.5552 576,-166 576,-166 576,-166 784.0857,-166 784.0857,-166"/>
<polygon fill="#000000" stroke="#000000" points="784.0857,-169.5001 794.0857,-166 784.0856,-162.5001 784.0857,-169.5001"/>
</g>
<!-- SearchPageComponent -->
<g id="node11" class="node">
<title>SearchPageComponent</title>
<polygon fill="#ffffb3" stroke="#000000" points="1402.1317,-122 1255.8683,-122 1255.8683,-86 1402.1317,-86 1402.1317,-122"/>
<text text-anchor="middle" x="1329" y="-99.8" font-family="Times,serif" font-size="14.00" fill="#000000">SearchPageComponent</text>
</g>
<!-- ExploreModule -->
<g id="node12" class="node">
<title>ExploreModule</title>
<polygon fill="#8dd3c7" stroke="#000000" points="1551.8683,-190 1548.8683,-194 1527.8683,-194 1524.8683,-190 1448.1317,-190 1448.1317,-154 1551.8683,-154 1551.8683,-190"/>
<text text-anchor="middle" x="1500" y="-167.8" font-family="Times,serif" font-size="14.00" fill="#000000">ExploreModule</text>
</g>
<!-- SearchPageComponent&#45;&gt;ExploreModule -->
<g id="edge9" class="edge">
<title>SearchPageComponent&#45;&gt;ExploreModule</title>
<path fill="none" stroke="#000000" d="M1329,-122.2921C1329,-144.2057 1329,-178 1329,-178 1329,-178 1437.7652,-178 1437.7652,-178"/>
<polygon fill="#000000" stroke="#000000" points="1437.7652,-181.5001 1447.7652,-178 1437.7652,-174.5001 1437.7652,-181.5001"/>
</g>
<!-- ExploreRoutingModule -->
<g id="node13" class="node">
<title>ExploreRoutingModule</title>
<polygon fill="#8dd3c7" stroke="#000000" points="1574.486,-122 1571.486,-126 1550.486,-126 1547.486,-122 1425.514,-122 1425.514,-86 1574.486,-86 1574.486,-122"/>
<text text-anchor="middle" x="1500" y="-99.8" font-family="Times,serif" font-size="14.00" fill="#000000">ExploreRoutingModule</text>
</g>
<!-- ExploreRoutingModule&#45;&gt;ExploreModule -->
<g id="edge10" class="edge">
<title>ExploreRoutingModule&#45;&gt;ExploreModule</title>
<path fill="none" stroke="#000000" d="M1500,-122.2228C1500,-122.2228 1500,-143.7269 1500,-143.7269"/>
<polygon fill="#000000" stroke="#000000" points="1496.5001,-143.7269 1500,-153.7269 1503.5001,-143.727 1496.5001,-143.7269"/>
</g>
<!-- SharedModule -->
<g id="node14" class="node">
<title>SharedModule</title>
<polygon fill="#8dd3c7" stroke="#000000" points="1691.4231,-122 1688.4231,-126 1667.4231,-126 1664.4231,-122 1592.5769,-122 1592.5769,-86 1691.4231,-86 1691.4231,-122"/>
<text text-anchor="middle" x="1642" y="-99.8" font-family="Times,serif" font-size="14.00" fill="#000000">SharedModule</text>
</g>
<!-- SharedModule&#45;&gt;ExploreModule -->
<g id="edge11" class="edge">
<title>SharedModule&#45;&gt;ExploreModule</title>
<path fill="none" stroke="#000000" d="M1625.5963,-122.2921C1625.5963,-144.2057 1625.5963,-178 1625.5963,-178 1625.5963,-178 1562.173,-178 1562.173,-178"/>
<polygon fill="#000000" stroke="#000000" points="1562.1731,-174.5001 1552.173,-178 1562.173,-181.5001 1562.1731,-174.5001"/>
</g>
<!-- ChallengeListComponent  -->
<g id="node19" class="node">
<title>ChallengeListComponent </title>
<polygon fill="#fb8072" stroke="#000000" points="1894.8728,-190 1731.1272,-190 1731.1272,-154 1894.8728,-154 1894.8728,-190"/>
<text text-anchor="middle" x="1813" y="-167.8" font-family="Times,serif" font-size="14.00" fill="#000000">ChallengeListComponent </text>
</g>
<!-- SharedModule&#45;&gt;ChallengeListComponent  -->
<g id="edge15" class="edge">
<title>SharedModule&#45;&gt;ChallengeListComponent </title>
<path fill="none" stroke="#000000" stroke-dasharray="5,2" d="M1658.4037,-122.2667C1658.4037,-140.5552 1658.4037,-166 1658.4037,-166 1658.4037,-166 1721.175,-166 1721.175,-166"/>
<polygon fill="#000000" stroke="#000000" points="1721.175,-169.5001 1731.175,-166 1721.1749,-162.5001 1721.175,-169.5001"/>
</g>
<!-- LoginComponent -->
<g id="node15" class="node">
<title>LoginComponent</title>
<polygon fill="#ffffb3" stroke="#000000" points="2395.2758,-122 2280.7242,-122 2280.7242,-86 2395.2758,-86 2395.2758,-122"/>
<text text-anchor="middle" x="2338" y="-99.8" font-family="Times,serif" font-size="14.00" fill="#000000">LoginComponent</text>
</g>
<!-- LoginModule -->
<g id="node16" class="node">
<title>LoginModule</title>
<polygon fill="#8dd3c7" stroke="#000000" points="2309.493,-190 2306.493,-194 2285.493,-194 2282.493,-190 2216.507,-190 2216.507,-154 2309.493,-154 2309.493,-190"/>
<text text-anchor="middle" x="2263" y="-167.8" font-family="Times,serif" font-size="14.00" fill="#000000">LoginModule</text>
</g>
<!-- LoginComponent&#45;&gt;LoginModule -->
<g id="edge12" class="edge">
<title>LoginComponent&#45;&gt;LoginModule</title>
<path fill="none" stroke="#000000" d="M2295.0544,-122.2228C2295.0544,-122.2228 2295.0544,-143.7269 2295.0544,-143.7269"/>
<polygon fill="#000000" stroke="#000000" points="2291.5544,-143.7269 2295.0544,-153.7269 2298.5544,-143.727 2291.5544,-143.7269"/>
</g>
<!-- LoginRoutingModule -->
<g id="node17" class="node">
<title>LoginRoutingModule</title>
<polygon fill="#8dd3c7" stroke="#000000" points="2257.1108,-122 2254.1108,-126 2233.1108,-126 2230.1108,-122 2118.8892,-122 2118.8892,-86 2257.1108,-86 2257.1108,-122"/>
<text text-anchor="middle" x="2188" y="-99.8" font-family="Times,serif" font-size="14.00" fill="#000000">LoginRoutingModule</text>
</g>
<!-- LoginRoutingModule&#45;&gt;LoginModule -->
<g id="edge13" class="edge">
<title>LoginRoutingModule&#45;&gt;LoginModule</title>
<path fill="none" stroke="#000000" d="M2236.7795,-122.2228C2236.7795,-122.2228 2236.7795,-143.7269 2236.7795,-143.7269"/>
<polygon fill="#000000" stroke="#000000" points="2233.2795,-143.7269 2236.7795,-153.7269 2240.2795,-143.727 2233.2795,-143.7269"/>
</g>
<!-- ChallengeListComponent -->
<g id="node18" class="node">
<title>ChallengeListComponent</title>
<polygon fill="#ffffb3" stroke="#000000" points="2078.8725,-190 1919.1275,-190 1919.1275,-154 2078.8725,-154 2078.8725,-190"/>
<text text-anchor="middle" x="1999" y="-167.8" font-family="Times,serif" font-size="14.00" fill="#000000">ChallengeListComponent</text>
</g>
<!-- ChallengeListComponent&#45;&gt;SharedModule -->
<g id="edge14" class="edge">
<title>ChallengeListComponent&#45;&gt;SharedModule</title>
<path fill="none" stroke="#000000" d="M1999,-153.7772C1999,-133.6348 1999,-104 1999,-104 1999,-104 1701.2645,-104 1701.2645,-104"/>
<polygon fill="#000000" stroke="#000000" points="1701.2645,-100.5001 1691.2645,-104 1701.2645,-107.5001 1701.2645,-100.5001"/>
</g>
<!-- CodingComponent -->
<g id="node20" class="node">
<title>CodingComponent</title>
<polygon fill="#ffffb3" stroke="#000000" points="2934.0604,-122 2811.9396,-122 2811.9396,-86 2934.0604,-86 2934.0604,-122"/>
<text text-anchor="middle" x="2873" y="-99.8" font-family="Times,serif" font-size="14.00" fill="#000000">CodingComponent</text>
</g>
<!-- WorkspaceModule -->
<g id="node22" class="node">
<title>WorkspaceModule</title>
<polygon fill="#8dd3c7" stroke="#000000" points="2771.0144,-190 2768.0144,-194 2747.0144,-194 2744.0144,-190 2648.9856,-190 2648.9856,-154 2771.0144,-154 2771.0144,-190"/>
<text text-anchor="middle" x="2710" y="-167.8" font-family="Times,serif" font-size="14.00" fill="#000000">WorkspaceModule</text>
</g>
<!-- CodingComponent&#45;&gt;WorkspaceModule -->
<g id="edge16" class="edge">
<title>CodingComponent&#45;&gt;WorkspaceModule</title>
<path fill="none" stroke="#000000" d="M2873,-122.2228C2873,-142.3652 2873,-172 2873,-172 2873,-172 2781.1589,-172 2781.1589,-172"/>
<polygon fill="#000000" stroke="#000000" points="2781.159,-168.5001 2771.1589,-172 2781.1589,-175.5001 2781.159,-168.5001"/>
</g>
<!-- SolutionDialogComponent -->
<g id="node21" class="node">
<title>SolutionDialogComponent</title>
<polygon fill="#ffffb3" stroke="#000000" points="2793.3892,-122 2626.6108,-122 2626.6108,-86 2793.3892,-86 2793.3892,-122"/>
<text text-anchor="middle" x="2710" y="-99.8" font-family="Times,serif" font-size="14.00" fill="#000000">SolutionDialogComponent</text>
</g>
<!-- SolutionDialogComponent&#45;&gt;WorkspaceModule -->
<g id="edge17" class="edge">
<title>SolutionDialogComponent&#45;&gt;WorkspaceModule</title>
<path fill="none" stroke="#000000" d="M2710,-122.2228C2710,-122.2228 2710,-143.7269 2710,-143.7269"/>
<polygon fill="#000000" stroke="#000000" points="2706.5001,-143.7269 2710,-153.7269 2713.5001,-143.727 2706.5001,-143.7269"/>
</g>
<!-- WorkspaceRoutingModule -->
<g id="node23" class="node">
<title>WorkspaceRoutingModule</title>
<polygon fill="#8dd3c7" stroke="#000000" points="2602.6316,-122 2599.6316,-126 2578.6316,-126 2575.6316,-122 2435.3684,-122 2435.3684,-86 2602.6316,-86 2602.6316,-122"/>
<text text-anchor="middle" x="2519" y="-99.8" font-family="Times,serif" font-size="14.00" fill="#000000">WorkspaceRoutingModule</text>
</g>
<!-- WorkspaceRoutingModule&#45;&gt;WorkspaceModule -->
<g id="edge18" class="edge">
<title>WorkspaceRoutingModule&#45;&gt;WorkspaceModule</title>
<path fill="none" stroke="#000000" d="M2519,-122.2228C2519,-142.3652 2519,-172 2519,-172 2519,-172 2638.7783,-172 2638.7783,-172"/>
<polygon fill="#000000" stroke="#000000" points="2638.7783,-175.5001 2648.7783,-172 2638.7783,-168.5001 2638.7783,-175.5001"/>
</g>
</g>
</svg>
